<svg width="47" height="47" viewBox="0 0 47 47" fill="none" xmlns="http://www.w3.org/2000/svg">
<path d="M14.9609 44.7559H19.8428" stroke="#75C159" stroke-width="4.30611" stroke-linecap="round" stroke-linejoin="round"/>
<path d="M27.8125 15.3516V24.7241" stroke="#EF4965" stroke-width="4.30611" stroke-linecap="round" stroke-linejoin="round"/>
<path d="M30.5333 3H8.89453" stroke="#F15A47" stroke-width="4.30611" stroke-linecap="round" stroke-linejoin="round"/>
<path d="M43.9833 13.8071V9.97835C43.9833 6.125 40.8583 3 37.0049 3H31.0625" stroke="#76C158" stroke-width="4.30611" stroke-linecap="round" stroke-linejoin="round"/>
<path d="M11.6172 24.5719C11.7624 20.1009 15.5025 16.5945 19.9735 16.7397C24.2402 16.8775 27.6679 20.3052 27.8057 24.5719" stroke="#EF4965" stroke-width="4.30611" stroke-linecap="round" stroke-linejoin="round"/>
<path d="M27.8051 24.1377C27.66 28.6087 31.159 32.9369 35.63 33.0821C40.1009 33.2273 43.8411 29.7209 43.9863 25.2499C43.9912 25.0752 43.9912 24.9005 43.9863 24.7258" stroke="#FFC840" stroke-width="4.30611" stroke-linecap="round" stroke-linejoin="round"/>
<path d="M29.9117 24.4431H29.9634C30.02 21.3993 28.4205 18.4293 25.6573 16.4805L25.6523 24.4382L29.9117 24.4431Z" fill="#E62351"/>
<path d="M27.8008 24.4424L27.8057 24.7327C27.6605 29.2037 23.9203 32.7101 19.4494 32.5649C15.1826 32.4271 11.755 28.9995 11.6172 24.7327V24.5703" stroke="#7082BB" stroke-width="4.30611" stroke-linecap="round" stroke-linejoin="round"/>
<path opacity="0.75" d="M17.4219 16.7402C17.4219 17.9287 18.3618 18.8908 19.5208 18.8908C20.6797 18.8908 21.6197 17.9287 21.6197 16.7402H17.4219Z" fill="#E52552"/>
<path d="M17.4219 16.7395C17.4219 15.551 18.3618 14.5889 19.5208 14.5889C20.6797 14.5889 21.6197 15.551 21.6197 16.7395H17.4219Z" fill="#E52552"/>
<path d="M9.46484 24.4424C9.46484 25.6309 10.4294 26.5954 11.6179 26.5954C12.8064 26.5954 13.7709 25.6309 13.7709 24.4424H9.46484Z" fill="#EF4965"/>
<path d="M9.46484 24.4411C9.46484 23.2527 10.4294 22.2881 11.6179 22.2881C12.8064 22.2881 13.7709 23.2527 13.7709 24.4411H9.46484Z" fill="#E52553"/>
<path d="M13.3149 3H9.48616C5.63281 3 2.50781 6.125 2.50781 9.97835V11.718" stroke="#F15A47" stroke-width="4.30611" stroke-linecap="round" stroke-linejoin="round"/>
<path d="M2.50391 39.625C3.33068 42.6639 6.04722 44.753 9.34692 44.753H15.4296" stroke="#75C15A" stroke-width="4.30611" stroke-linecap="round" stroke-linejoin="round"/>
<path d="M0.351562 39.625C0.351562 40.8258 1.31613 41.8002 2.50462 41.8002C3.6931 41.8002 4.65767 40.8258 4.65767 39.625H0.351562Z" fill="#F15A47"/>
<path d="M0.351562 39.6273C0.351562 38.4266 1.31613 37.4521 2.50462 37.4521C3.6931 37.4521 4.65767 38.4266 4.65767 39.6273H0.351562Z" fill="#F15A47"/>
<path d="M25.6523 24.3965C25.6523 25.5751 26.6169 26.5323 27.8079 26.5323C28.9988 26.5323 29.9634 25.5751 29.9634 24.3965H25.6523Z" fill="#E52553"/>
<path d="M25.6523 24.3975C25.6523 23.2189 26.6169 22.2617 27.8079 22.2617C28.9988 22.2617 29.9634 23.2189 29.9634 24.3975H25.6523Z" fill="#EF4965"/>
<path d="M4.65767 39.6988L0.354026 39.6865L0.351562 39.625H4.65767V39.6988Z" fill="#F15A47"/>
<path d="M2.50781 39.6266V10.4287" stroke="#FFC840" stroke-width="4.30611" stroke-linecap="round" stroke-linejoin="round"/>
<path d="M43.9961 12.0078V25.1008" stroke="#7082BB" stroke-width="4.30611" stroke-linecap="round" stroke-linejoin="round"/>
</svg>
