<svg width="75" height="74" viewBox="0 0 75 74" fill="none" xmlns="http://www.w3.org/2000/svg">
<path d="M38.7949 14.7285C38.8327 14.7323 38.8705 14.7334 38.9082 14.7295C39 14.7199 39.0932 14.7148 39.1875 14.7148H46.7178C53.1079 14.7148 58.29 19.897 58.29 26.2871V28.5576C58.3007 28.6558 58.3066 28.7554 58.3066 28.8564V45.4492C58.3066 45.4685 58.3041 45.4877 58.3037 45.5068C58.3028 45.5768 58.3028 45.6468 58.3008 45.7168V45.7285C58.0679 52.8998 52.0682 58.5249 44.8955 58.292C40.0718 58.1353 36.1109 55.118 33.9971 51.1191C31.6084 53.6579 28.2209 55.2461 24.46 55.2461C17.2269 55.246 11.3633 49.3825 11.3633 42.1494C11.3633 34.9163 17.2269 29.0528 24.46 29.0527C27.5416 29.0527 30.3744 30.1174 32.6113 31.8984C33.0543 30.9903 33.984 30.3633 35.0625 30.3633C36.5694 30.3633 37.791 31.5849 37.791 33.0918V44.0957C37.7946 44.1696 37.7974 44.2441 37.7949 44.3193L37.792 44.7305C37.8706 48.9691 41.2693 52.7141 45.0723 52.8379C49.2313 52.9729 52.7114 49.7121 52.8467 45.5518C52.8512 45.3854 52.8514 45.2191 52.8467 45.0527C52.8452 45.001 52.8482 44.9496 52.8496 44.8984V31.4365C52.839 31.3387 52.833 31.2393 52.833 31.1387V26.2871C52.833 22.9108 50.0941 20.1719 46.7178 20.1719H39.1875C39.0932 20.1719 38.9999 20.166 38.9082 20.1562C38.8704 20.1523 38.8327 20.1544 38.7949 20.1582L38.5156 20.1719H11.8516C8.47525 20.1719 5.73633 22.9108 5.73633 26.2871V28.4912C5.73633 28.5447 5.73155 28.5977 5.72852 28.6504V60.9482C5.72854 62.6141 5.86433 64.3882 6.9834 65.6221C8.1094 66.8635 9.75807 67.624 11.668 67.624H19.376L19.4502 67.6279H24.9561L25.2354 67.6416C26.6111 67.7814 27.6846 68.9438 27.6846 70.3564C27.6846 71.7691 26.6111 72.9315 25.2354 73.0713L24.9561 73.085H18.7695C18.7427 73.085 18.7161 73.0818 18.6895 73.0811H11.668C6.45092 73.081 2.02629 69.8478 0.501953 65.041L0.363281 64.5703L0.331055 64.4258C0.328993 64.416 0.327153 64.4063 0.325195 64.3965L0.303711 64.2979C0.272275 64.1084 0.263248 63.9194 0.271484 63.7334V26.8564C0.271484 26.8026 0.276222 26.7493 0.279297 26.6963V26.2871C0.279297 20.3923 4.68961 15.5286 10.3896 14.8096C10.6145 14.7496 10.85 14.7148 11.0938 14.7148H38.5156L38.7949 14.7285ZM24.46 33.9424C19.9273 33.9424 16.253 37.6167 16.2529 42.1494C16.2529 46.6821 19.9273 50.3564 24.46 50.3564C28.1891 50.3564 31.3349 47.8689 32.334 44.4629V39.835C31.3346 36.4295 28.1887 33.9424 24.46 33.9424Z" fill="url(#paint0_linear_2694_124799)"/>
<path d="M53.0482 13.4593C57.1034 13.4593 61.3837 16.9305 61.3848 21.7967C61.3848 21.7976 61.3856 21.7984 61.3865 21.7984C61.3875 21.7984 61.3883 21.7976 61.3883 21.7967C61.3893 16.9305 65.6697 13.4593 69.7248 13.4593H69.7266C65.6714 13.4593 61.3911 9.98809 61.39 5.12188C61.39 5.12091 61.3892 5.12012 61.3883 5.12012C61.3873 5.12012 61.3865 5.12091 61.3865 5.12188C61.3855 9.98809 57.1051 13.4593 53.05 13.4593H53.0482Z" fill="url(#paint1_linear_2694_124799)"/>
<path d="M64.7196 5.12166C67.1526 5.12166 69.7209 7.20438 69.7215 10.1241C69.7215 10.1247 69.722 10.1252 69.7225 10.1252C69.7231 10.1252 69.7236 10.1247 69.7236 10.1241C69.7242 7.20438 72.2924 5.12166 74.7255 5.12166H74.7266C72.2935 5.12166 69.7253 3.03895 69.7246 0.119221C69.7246 0.118643 69.7242 0.118164 69.7236 0.118164C69.723 0.118164 69.7225 0.118643 69.7225 0.119221C69.7219 3.03895 67.1537 5.12166 64.7206 5.12166H64.7196Z" fill="url(#paint2_linear_2694_124799)"/>
<defs>
<linearGradient id="paint0_linear_2694_124799" x1="0.269531" y1="14.7148" x2="58.6387" y2="72.748" gradientUnits="userSpaceOnUse">
<stop stop-color="#7280FF"/>
<stop offset="0.498969" stop-color="#C381F2"/>
<stop offset="1" stop-color="#F95B5F"/>
</linearGradient>
<linearGradient id="paint1_linear_2694_124799" x1="54.4933" y1="13.4894" x2="65.6624" y2="9.72622" gradientUnits="userSpaceOnUse">
<stop stop-color="#64C2DB"/>
<stop offset="0.510417" stop-color="#7476ED"/>
<stop offset="1" stop-color="#E56F8C"/>
</linearGradient>
<linearGradient id="paint2_linear_2694_124799" x1="65.5866" y1="5.13972" x2="72.288" y2="2.88183" gradientUnits="userSpaceOnUse">
<stop stop-color="#64C2DB"/>
<stop offset="0.510417" stop-color="#7476ED"/>
<stop offset="1" stop-color="#E56F8C"/>
</linearGradient>
</defs>
</svg>
