<svg width="322" height="47" viewBox="0 0 322 47" fill="none" xmlns="http://www.w3.org/2000/svg">
<path d="M13.3543 16.4944L13.3395 16.5092C12.8179 17.0382 11.9813 17.0677 11.3907 16.6125C10.0669 15.5938 8.76523 15.082 7.48817 15.082C6.47439 15.082 5.60332 15.4117 4.8799 16.0687C4.15647 16.7257 3.79476 17.4934 3.79476 18.3694C3.79476 19.1445 4.0925 19.8827 4.69043 20.584C5.2859 21.3 6.54082 22.1391 8.44781 23.1036C10.7731 24.2872 12.3553 25.4289 13.1894 26.5239C14.0088 27.6361 14.4198 28.8837 14.4198 30.2739C14.4198 32.2326 13.7185 33.8911 12.3184 35.2493C10.9183 36.6076 9.16632 37.2892 7.06494 37.2892C5.66484 37.2892 4.32626 36.989 3.05165 36.3911C2.20027 35.9924 1.44732 35.4905 0.792789 34.8876C0.241607 34.3807 0.239147 33.522 0.736194 32.9659L0.844462 32.8453C1.35627 32.2744 2.25194 32.1858 2.83265 32.6878C4.13679 33.8123 5.50244 34.3758 6.9296 34.3758C8.18206 34.3758 9.24752 33.9821 10.1284 33.1922C11.0093 32.4024 11.4498 31.4747 11.4498 30.4068C11.4498 29.5308 11.1594 28.7483 10.5763 28.0618C9.99555 27.3901 8.68157 26.5412 6.63925 25.52C4.44683 24.4102 2.95568 23.3128 2.16582 22.2301C1.37596 21.1499 0.979797 19.9147 0.979797 18.5269C0.979797 16.7158 1.60972 15.2099 2.86956 14.0092C4.12941 12.8108 5.72143 12.2129 7.64319 12.2129C9.56494 12.2129 11.3317 12.9388 13.1919 14.393C13.8637 14.9171 13.9473 15.8891 13.3494 16.4944H13.3543Z" fill="white" stroke="white" stroke-width="0.246063" stroke-miterlimit="10"/>
<path d="M31.7397 12.21C35.4823 12.21 38.5827 13.5387 41.0433 16.1986C43.28 18.6248 44.3972 21.4964 44.3972 24.8158C44.3972 28.1352 43.2161 31.0609 40.8514 33.551C38.4892 36.0436 35.4503 37.2887 31.7397 37.2887C28.029 37.2887 24.968 36.0412 22.6058 33.551C20.2436 31.0609 19.0625 28.1475 19.0625 24.8158C19.0625 21.4841 20.1796 18.647 22.4163 16.2233C24.877 13.5485 27.9848 12.2124 31.7421 12.2124L31.7397 12.21ZM31.7298 15.2119C29.1314 15.2119 26.8972 16.1544 25.032 18.0392C23.1644 19.924 22.2318 22.205 22.2318 24.8798C22.2318 26.6047 22.6575 28.2114 23.5089 29.7026C24.3602 31.1937 25.5094 32.3453 26.9587 33.1549C28.408 33.9669 29.9975 34.3704 31.7298 34.3704C33.4621 34.3704 35.0517 33.9644 36.501 33.1549C37.9503 32.3428 39.0994 31.1937 39.9508 29.7026C40.8022 28.2114 41.2279 26.6047 41.2279 24.8798C41.2279 22.205 40.2904 19.924 38.4154 18.0392C36.5404 16.1544 34.3135 15.2119 31.7298 15.2119Z" fill="white" stroke="white" stroke-width="0.246063" stroke-miterlimit="10"/>
<path d="M72.3919 18.6125C71.7694 18.9915 70.9697 18.8709 70.4701 18.3443C68.4229 16.1839 65.7703 15.1037 62.5149 15.1037C59.5572 15.1037 57.1015 16.0387 55.1453 17.9063C53.1916 19.7739 52.2123 22.0451 52.2123 24.7174C52.2123 26.4546 52.6626 28.0884 53.5607 29.6214C54.4588 31.1544 55.6941 32.3428 57.2615 33.1918C58.8289 34.0382 60.5883 34.4615 62.5346 34.4615C65.6768 34.4615 68.3146 33.3788 70.4406 31.211C70.95 30.6918 71.7595 30.5884 72.3747 30.9846H72.3796C73.167 31.4964 73.29 32.5717 72.6577 33.2557C71.666 34.3237 70.4726 35.1947 69.0774 35.8689C67.1212 36.8163 64.8919 37.2887 62.3919 37.2887C58.5533 37.2887 55.3668 36.0904 52.8373 33.6937C50.3077 31.2971 49.043 28.3812 49.043 24.9462C49.043 22.6381 49.6335 20.4924 50.8171 18.5116C52.0006 16.5308 53.6247 14.9856 55.6941 13.8758C57.7634 12.7661 60.0764 12.21 62.6355 12.21C64.2423 12.21 65.795 12.4511 67.2886 12.9334C68.7846 13.4157 70.0518 14.0456 71.0951 14.8182C71.7029 15.271 72.259 15.7951 72.7585 16.3906C73.3442 17.0869 73.167 18.1327 72.387 18.6101L72.3919 18.6125Z" fill="white" stroke="white" stroke-width="0.246063" stroke-miterlimit="10"/>
<path d="M80.3091 3.00293C80.9612 3.00293 81.5271 3.217 82.0045 3.64269C82.5581 4.13728 82.8903 4.86563 82.8854 5.60874C82.8805 6.27803 82.6442 6.85874 82.1767 7.35087C81.6895 7.86268 80.9956 8.16287 80.2894 8.16041C79.6005 8.15549 79.005 7.90205 78.5055 7.40008C78.006 6.89811 77.755 6.30264 77.7501 5.6112C77.7451 4.87055 78.0749 4.1422 78.6285 3.64762C79.1059 3.21947 79.6669 3.00539 80.3066 3.00539L80.3091 3.00293ZM80.3214 13.0029C81.1851 13.0029 81.8839 13.7018 81.8839 14.5654V35.7269C81.8839 36.5906 81.1851 37.2894 80.3214 37.2894C79.4577 37.2894 78.7589 36.5906 78.7589 35.7269V14.5654C78.7589 13.7018 79.4577 13.0029 80.3214 13.0029Z" fill="white" stroke="white" stroke-width="0.246063" stroke-miterlimit="10"/>
<path d="M112.824 14.334V35.7759C112.824 36.6126 112.135 37.2892 111.284 37.2892C110.432 37.2892 109.743 36.6126 109.743 35.7759V32.5747C108.434 34.1396 106.965 35.3158 105.334 36.1032C103.705 36.8931 101.921 37.2868 99.987 37.2868C96.5495 37.2868 93.6139 36.0638 91.1804 33.6155C88.7493 31.1696 87.5312 28.1923 87.5312 24.6859C87.5312 21.4378 88.8034 18.3153 91.1016 15.9826C93.5795 13.4679 96.5716 12.208 100.076 12.208C102.069 12.208 103.875 12.6239 105.489 13.458C107.103 14.2897 108.52 15.5397 109.741 17.2056V14.334C109.741 13.4974 110.43 12.8207 111.281 12.8207C112.133 12.8207 112.822 13.4974 112.822 14.334H112.824ZM100.334 15.1681C98.5942 15.1681 96.9899 15.5889 95.5185 16.428C94.047 17.2671 92.8757 18.4457 92.0071 19.9639C91.1385 21.4821 90.703 23.0889 90.703 24.7818C90.703 26.4748 91.141 28.0668 92.0194 29.5998C92.8954 31.1327 94.0741 32.3261 95.5529 33.18C97.0318 34.0338 98.6189 34.462 100.314 34.462C102.01 34.462 103.643 34.0387 105.174 33.1923C106.704 32.3458 107.883 31.1992 108.707 29.7548C109.532 28.3104 109.945 26.6814 109.945 24.8704C109.945 22.1121 109.02 19.804 107.17 17.9511C105.319 16.0983 103.041 15.1706 100.336 15.1706L100.334 15.1681Z" fill="white" stroke="white" stroke-width="0.246063" stroke-miterlimit="10"/>
<path d="M119.031 3C119.895 3 120.594 3.71358 120.594 4.59203V35.6969C120.594 36.5753 119.895 37.2889 119.031 37.2889C118.168 37.2889 117.469 36.5753 117.469 35.6969V4.59203C117.469 3.71358 118.168 3 119.031 3Z" fill="white" stroke="white" stroke-width="0.246063" stroke-miterlimit="10"/>
<path d="M140.961 44.7559H145.843" stroke="#75C159" stroke-width="4.30611" stroke-linecap="round" stroke-linejoin="round"/>
<path d="M153.812 15.3516V24.7241" stroke="#EF4965" stroke-width="4.30611" stroke-linecap="round" stroke-linejoin="round"/>
<path d="M156.533 3H134.895" stroke="#F15A47" stroke-width="4.30611" stroke-linecap="round" stroke-linejoin="round"/>
<path d="M169.983 13.8071V9.97835C169.983 6.125 166.858 3 163.005 3H157.062" stroke="#76C158" stroke-width="4.30611" stroke-linecap="round" stroke-linejoin="round"/>
<path d="M137.617 24.5719C137.762 20.1009 141.503 16.5945 145.973 16.7397C150.24 16.8775 153.668 20.3052 153.806 24.5719" stroke="#EF4965" stroke-width="4.30611" stroke-linecap="round" stroke-linejoin="round"/>
<path d="M153.805 24.1377C153.66 28.6087 157.159 32.9369 161.63 33.0821C166.101 33.2273 169.841 29.7209 169.986 25.2499C169.991 25.0752 169.991 24.9005 169.986 24.7258" stroke="#FFC840" stroke-width="4.30611" stroke-linecap="round" stroke-linejoin="round"/>
<path d="M155.912 24.4431H155.963C156.02 21.3993 154.421 18.4293 151.657 16.4805L151.652 24.4382L155.912 24.4431Z" fill="#E62351"/>
<path d="M153.801 24.4424L153.806 24.7327C153.66 29.2037 149.92 32.7101 145.449 32.5649C141.183 32.4271 137.755 28.9995 137.617 24.7327V24.5703" stroke="#7082BB" stroke-width="4.30611" stroke-linecap="round" stroke-linejoin="round"/>
<path opacity="0.75" d="M143.422 16.7402C143.422 17.9287 144.362 18.8908 145.521 18.8908C146.68 18.8908 147.62 17.9287 147.62 16.7402H143.422Z" fill="#E52552"/>
<path d="M143.422 16.7395C143.422 15.551 144.362 14.5889 145.521 14.5889C146.68 14.5889 147.62 15.551 147.62 16.7395H143.422Z" fill="#E52552"/>
<path d="M135.465 24.4424C135.465 25.6309 136.429 26.5954 137.618 26.5954C138.806 26.5954 139.771 25.6309 139.771 24.4424H135.465Z" fill="#EF4965"/>
<path d="M135.465 24.4411C135.465 23.2527 136.429 22.2881 137.618 22.2881C138.806 22.2881 139.771 23.2527 139.771 24.4411H135.465Z" fill="#E52553"/>
<path d="M139.315 3H135.486C131.633 3 128.508 6.125 128.508 9.97835V11.718" stroke="#F15A47" stroke-width="4.30611" stroke-linecap="round" stroke-linejoin="round"/>
<path d="M128.504 39.625C129.331 42.6639 132.047 44.753 135.347 44.753H141.43" stroke="#75C15A" stroke-width="4.30611" stroke-linecap="round" stroke-linejoin="round"/>
<path d="M126.352 39.625C126.352 40.8258 127.316 41.8002 128.505 41.8002C129.693 41.8002 130.658 40.8258 130.658 39.625H126.352Z" fill="#F15A47"/>
<path d="M126.352 39.6273C126.352 38.4266 127.316 37.4521 128.505 37.4521C129.693 37.4521 130.658 38.4266 130.658 39.6273H126.352Z" fill="#F15A47"/>
<path d="M151.652 24.3965C151.652 25.5751 152.617 26.5323 153.808 26.5323C154.999 26.5323 155.963 25.5751 155.963 24.3965H151.652Z" fill="#E52553"/>
<path d="M151.652 24.3975C151.652 23.2189 152.617 22.2617 153.808 22.2617C154.999 22.2617 155.963 23.2189 155.963 24.3975H151.652Z" fill="#EF4965"/>
<path d="M130.658 39.6988L126.354 39.6865L126.352 39.625H130.658V39.6988Z" fill="#F15A47"/>
<path d="M128.508 39.6266V10.4287" stroke="#FFC840" stroke-width="4.30611" stroke-linecap="round" stroke-linejoin="round"/>
<path d="M169.996 12.0078V25.1008" stroke="#7082BB" stroke-width="4.30611" stroke-linecap="round" stroke-linejoin="round"/>
<path d="M201.03 6.06133V37.6632C201.03 38.5121 200.341 39.2011 199.493 39.2011C198.641 39.2011 197.952 38.5146 197.955 37.6632C197.955 36.2484 197.955 34.3684 197.955 34.3684C196.646 35.9605 195.177 37.1563 193.548 37.961C191.919 38.7631 190.137 39.1642 188.203 39.1642C184.768 39.1642 181.835 37.9191 179.402 35.429C177.012 32.9806 175.797 30.0107 175.755 26.5215C175.713 23.0323 177.047 19.7867 179.436 17.3679C181.889 14.8852 184.842 13.6425 188.292 13.6425C190.285 13.6425 192.089 14.0658 193.703 14.9147C195.317 15.7636 196.734 17.0358 197.952 18.7311V6.06133C197.952 5.21241 198.641 4.52344 199.49 4.52344C200.339 4.52344 201.028 5.21241 201.028 6.06133H201.03ZM188.55 16.6568C186.813 16.6568 185.209 17.085 183.737 17.9388C182.266 18.7926 181.097 19.9934 180.226 21.5387C179.355 23.084 178.922 24.7178 178.922 26.4403C178.922 28.1627 179.36 29.7843 180.236 31.3443C181.112 32.9044 182.29 34.1199 183.767 34.9885C185.246 35.8571 186.83 36.2927 188.526 36.2927C190.221 36.2927 191.855 35.862 193.383 35.0008C194.913 34.1396 196.09 32.9733 196.914 31.5018C197.738 30.0303 198.152 28.3743 198.152 26.5313C198.152 23.7237 197.226 21.3763 195.376 19.489C193.526 17.6042 191.249 16.6593 188.545 16.6593L188.55 16.6568Z" fill="white" stroke="white" stroke-width="0.246063" stroke-miterlimit="10"/>
<path d="M231.155 6.09598L230.966 37.6659C230.961 38.5148 230.272 39.2013 229.423 39.2013C228.569 39.2013 227.88 38.5099 227.88 37.6585V34.4055C226.569 35.9976 225.1 37.1934 223.473 37.9981C221.844 38.8002 220.063 39.2013 218.129 39.2013C214.694 39.2013 211.761 37.9562 209.327 35.4661C206.938 33.0178 205.722 30.0478 205.681 26.5586C205.641 23.158 206.972 19.8238 209.362 17.405C211.815 14.9223 214.768 13.6796 218.217 13.6796C220.211 13.6796 222.014 14.1029 223.628 14.9518C225.243 15.8007 226.66 17.0729 227.878 18.7682L228.08 6.09844C228.08 5.24952 228.769 4.56055 229.618 4.56055C230.466 4.56055 231.155 5.24952 231.155 6.09844V6.09598ZM218.473 16.6915C216.736 16.6915 215.132 17.1196 213.66 17.9735C212.189 18.8273 211.02 20.0281 210.149 21.5734C209.28 23.1186 208.845 24.7525 208.845 26.4749C208.845 28.1974 209.283 29.8189 210.159 31.379C211.035 32.939 212.214 34.1546 213.69 35.0232C215.169 35.8918 216.753 36.3273 218.449 36.3273C220.144 36.3273 221.778 35.8967 223.306 35.0355C224.837 34.1743 226.013 33.0079 226.837 31.5365C227.661 30.065 228.075 28.409 228.075 26.566C228.075 23.7584 227.15 21.411 225.299 19.5236C223.449 17.6388 221.173 16.6939 218.468 16.6939L218.473 16.6915Z" fill="white" stroke="white" stroke-width="0.246063" stroke-miterlimit="10"/>
<path d="M237.399 14.2554C238.28 14.2554 238.994 14.9689 238.994 15.8498V17.8036C239.946 16.4059 240.95 15.3602 242.005 14.6687C243.061 13.9773 244.161 13.6328 245.308 13.6328C245.549 13.6328 245.795 13.655 246.046 13.6968C247.124 13.8813 247.665 15.119 247.089 16.0492C246.747 16.6028 246.09 16.8981 245.458 16.7504C245.217 16.6938 244.995 16.6643 244.796 16.6643C243.755 16.6643 242.751 17.0925 241.784 17.9463C240.817 18.8026 240.079 20.1289 239.574 21.9301C239.188 23.3129 238.994 26.1107 238.994 30.3184V37.6067C238.994 38.4877 238.28 39.2012 237.399 39.2012C236.518 39.2012 235.805 38.4877 235.805 37.6067V15.8498C235.805 14.9689 236.518 14.2554 237.399 14.2554Z" fill="white" stroke="white" stroke-width="0.246063" stroke-miterlimit="10"/>
<path d="M274.826 31.1719C275.603 31.5803 275.889 32.572 275.421 33.3175C274.757 34.3781 274.023 35.2737 273.226 36.0095C272.094 37.0503 270.822 37.8426 269.407 38.3864C267.992 38.9302 266.393 39.2009 264.607 39.2009C260.647 39.2009 257.549 37.9041 255.318 35.3082C253.086 32.7122 251.969 29.7791 251.969 26.5065C251.969 23.4282 252.914 20.6846 254.803 18.2732C257.2 15.2097 260.409 13.6768 264.427 13.6768C268.445 13.6768 271.87 15.2466 274.341 18.3839C276.098 20.601 276.991 23.3667 277.02 26.6837H255.177C255.236 29.5035 256.137 31.8141 257.882 33.6177C259.624 35.4214 261.774 36.322 264.336 36.322C265.571 36.322 266.774 36.1079 267.943 35.6773C269.112 35.2491 270.106 34.6783 270.925 33.9671C271.531 33.443 272.171 32.6802 272.847 31.6812C273.283 31.0365 274.134 30.8126 274.823 31.1743L274.826 31.1719ZM273.588 23.9843C273.17 22.3185 272.564 20.9873 271.767 19.9907C270.989 19.0188 269.968 18.2314 268.701 17.6261C267.385 16.9962 265.928 16.6664 264.469 16.6664C262.087 16.6664 260.042 17.4341 258.329 18.9647C257.077 20.0793 256.132 21.7526 255.492 23.9843H273.585H273.588Z" fill="white" stroke="white" stroke-width="0.246063" stroke-miterlimit="10"/>
<path d="M294.621 18.0468C294.099 18.5857 293.26 18.6201 292.67 18.1575C291.346 17.1191 290.044 16.6 288.767 16.6C287.751 16.6 286.885 16.9346 286.161 17.6039C285.438 18.2732 285.076 19.0532 285.076 19.9464C285.076 20.7338 285.374 21.4843 285.969 22.2003C286.565 22.9287 287.817 23.785 289.724 24.7668C292.05 25.9725 293.629 27.1315 294.464 28.2486C295.283 29.378 295.694 30.6502 295.694 32.0626C295.694 34.0557 294.993 35.7437 293.592 37.1265C292.192 38.5094 290.44 39.2009 288.341 39.2009C286.941 39.2009 285.603 38.8957 284.331 38.288C283.519 37.8992 282.798 37.4169 282.165 36.8411C281.572 36.2998 281.498 35.3943 282.027 34.7914L282.121 34.6856C282.657 34.0778 283.57 34.0508 284.183 34.5798C285.465 35.6846 286.806 36.2358 288.209 36.2358C289.461 36.2358 290.526 35.8347 291.405 35.0301C292.286 34.2279 292.724 33.283 292.724 32.1979C292.724 31.3047 292.433 30.5099 291.853 29.8111C291.272 29.127 289.961 28.2633 287.918 27.2225C285.726 26.0931 284.237 24.9759 283.447 23.876C282.657 22.7761 282.264 21.5188 282.264 20.1064C282.264 18.2609 282.894 16.7304 284.151 15.5099C285.411 14.2894 287 13.6816 288.922 13.6816C290.844 13.6816 292.628 14.4297 294.496 15.9233C295.155 16.4499 295.202 17.4439 294.616 18.0493L294.621 18.0468Z" fill="white" stroke="white" stroke-width="0.246063" stroke-miterlimit="10"/>
<path d="M313.289 18.0468C312.767 18.5857 311.928 18.6201 311.338 18.1575C310.014 17.1191 308.712 16.6 307.435 16.6C306.419 16.6 305.553 16.9346 304.829 17.6039C304.106 18.2732 303.744 19.0532 303.744 19.9464C303.744 20.7338 304.042 21.4843 304.637 22.2003C305.233 22.9287 306.485 23.785 308.392 24.7668C310.718 25.9725 312.297 27.1315 313.131 28.2486C313.951 29.378 314.362 30.6502 314.362 32.0626C314.362 34.0557 313.661 35.7437 312.26 37.1265C310.86 38.5094 309.108 39.2009 307.009 39.2009C305.609 39.2009 304.271 38.8957 302.999 38.288C302.187 37.8992 301.466 37.4169 300.833 36.8411C300.24 36.2998 300.166 35.3943 300.695 34.7914L300.789 34.6856C301.325 34.0778 302.238 34.0508 302.851 34.5798C304.133 35.6846 305.474 36.2358 306.877 36.2358C308.129 36.2358 309.194 35.8347 310.073 35.0301C310.954 34.2279 311.392 33.283 311.392 32.1979C311.392 31.3047 311.101 30.5099 310.521 29.8111C309.94 29.127 308.629 28.2633 306.586 27.2225C304.394 26.0931 302.905 24.9759 302.115 23.876C301.325 22.7761 300.932 21.5188 300.932 20.1064C300.932 18.2609 301.562 16.7304 302.819 15.5099C304.079 14.2894 305.668 13.6816 307.59 13.6816C309.512 13.6816 311.296 14.4297 313.163 15.9233C313.823 16.4499 313.87 17.4439 313.284 18.0493L313.289 18.0468Z" fill="white" stroke="white" stroke-width="0.246063" stroke-miterlimit="10"/>
<path d="M314.713 7.00984V7.54724H313.086V12H312.51V7.54724H310.882V7.00984H314.713ZM320.271 7.00984V12H319.695V8.12303L318.098 11.3858H317.699L316.102 8.12303V12H315.527V7.00984H316.141L317.899 10.5106L319.657 7.00984H320.271Z" fill="white"/>
</svg>
