<svg width="235" height="35" viewBox="0 0 235 35" fill="none" xmlns="http://www.w3.org/2000/svg">
<g clip-path="url(#clip0_63_1486)">
<path d="M105.947 32.6676H109.579" stroke="#75C159" stroke-width="3.2036" stroke-linecap="round" stroke-linejoin="round"/>
<path d="M115.508 10.7915V17.7644" stroke="#EF4965" stroke-width="3.2036" stroke-linecap="round" stroke-linejoin="round"/>
<path d="M117.534 1.60181H101.436" stroke="#F15A47" stroke-width="3.2036" stroke-linecap="round" stroke-linejoin="round"/>
<path d="M127.546 9.64194V6.79347C127.546 3.92671 125.221 1.60181 122.355 1.60181H117.934" stroke="#76C158" stroke-width="3.2036" stroke-linecap="round" stroke-linejoin="round"/>
<path d="M103.461 17.6509C103.569 14.3247 106.352 11.716 109.678 11.824C112.852 11.9266 115.402 14.4766 115.505 17.6509" stroke="#EF4965" stroke-width="3.2036" stroke-linecap="round" stroke-linejoin="round"/>
<path d="M127.551 8.30371V18.0445" stroke="#7082BB" stroke-width="3.2036" stroke-linecap="round" stroke-linejoin="round"/>
<path d="M115.507 17.3287C115.399 20.655 118.002 23.8751 121.329 23.9831C124.655 24.0911 127.437 21.4824 127.545 18.1562C127.549 18.0262 127.549 17.8962 127.545 17.7663" stroke="#FFC840" stroke-width="3.2036" stroke-linecap="round" stroke-linejoin="round"/>
<path d="M117.071 17.5539H117.11C117.152 15.2894 115.962 13.0799 113.906 11.63L113.902 17.5503L117.071 17.5539Z" fill="#E62351"/>
<path d="M115.503 17.554L115.507 17.77C115.399 21.0962 112.616 23.7049 109.29 23.5969C106.115 23.4943 103.565 20.9443 103.463 17.77V17.6491" stroke="#7082BB" stroke-width="3.2036" stroke-linecap="round" stroke-linejoin="round"/>
<path opacity="0.75" d="M107.779 11.8241C107.779 12.7083 108.479 13.4241 109.341 13.4241C110.203 13.4241 110.902 12.7083 110.902 11.8241H107.779Z" fill="#E52552"/>
<path d="M107.779 11.8241C107.779 10.9399 108.479 10.2241 109.341 10.2241C110.203 10.2241 110.902 10.9399 110.902 11.8241H107.779Z" fill="#E52552"/>
<path d="M101.863 17.554C101.863 18.4381 102.581 19.1558 103.465 19.1558C104.349 19.1558 105.067 18.4381 105.067 17.554H101.863Z" fill="#EF4965"/>
<path d="M101.863 17.554C101.863 16.6698 102.581 15.9521 103.465 15.9521C104.349 15.9521 105.067 16.6698 105.067 17.554H101.863Z" fill="#E52553"/>
<path d="M96.6836 28.8507V7.12842" stroke="#FFC840" stroke-width="3.2036" stroke-linecap="round" stroke-linejoin="round"/>
<path d="M104.726 1.60181H101.877C99.0104 1.60181 96.6855 3.92671 96.6855 6.79347V8.08773" stroke="#F15A47" stroke-width="3.2036" stroke-linecap="round" stroke-linejoin="round"/>
<path d="M96.6836 28.8507C97.2987 31.1115 99.3197 32.6657 101.775 32.6657H106.3" stroke="#75C15A" stroke-width="3.2036" stroke-linecap="round" stroke-linejoin="round"/>
<path d="M95.0801 28.8507C95.0801 29.7441 95.7977 30.469 96.6819 30.469C97.5661 30.469 98.2837 29.7441 98.2837 28.8507H95.0801Z" fill="#F15A47"/>
<path d="M95.0801 28.8507C95.0801 27.9574 95.7977 27.2324 96.6819 27.2324C97.5661 27.2324 98.2837 27.9574 98.2837 28.8507H95.0801Z" fill="#F15A47"/>
<path d="M113.902 17.521C113.902 18.3979 114.62 19.11 115.506 19.11C116.392 19.11 117.11 18.3979 117.11 17.521H113.902Z" fill="#E52553"/>
<path d="M113.902 17.521C113.902 16.6441 114.62 15.932 115.506 15.932C116.392 15.932 117.11 16.6441 117.11 17.521H113.902Z" fill="#EF4965"/>
<path d="M9.74894 11.9412L9.73796 11.9521C9.34986 12.3457 8.72745 12.3677 8.2881 12.029C7.30322 11.2711 6.33481 10.8904 5.38472 10.8904C4.6305 10.8904 3.98245 11.1357 3.44425 11.6245C2.90604 12.1132 2.63694 12.6844 2.63694 13.3361C2.63694 13.9127 2.85845 14.4619 3.30329 14.9837C3.7463 15.5164 4.67992 16.1406 6.09866 16.8582C7.82861 17.7388 9.0057 18.5882 9.62629 19.4028C10.2359 20.2303 10.5416 21.1584 10.5416 22.1927C10.5416 23.6499 10.0199 24.8837 8.97824 25.8942C7.93662 26.9047 6.63321 27.4118 5.06985 27.4118C4.02822 27.4118 3.03236 27.1885 2.08409 26.7436C1.45069 26.4471 0.890519 26.0736 0.403571 25.6251C-0.00648986 25.248 -0.00832049 24.6091 0.361467 24.1954L0.442015 24.1057C0.822786 23.681 1.48914 23.6151 1.92116 23.9885C2.8914 24.8251 3.9074 25.2443 4.96916 25.2443C5.90095 25.2443 6.69362 24.9514 7.34898 24.3638C8.00435 23.7762 8.33203 23.086 8.33203 22.2915C8.33203 21.6398 8.11602 21.0577 7.68216 20.5469C7.25013 20.0472 6.27257 19.4156 4.75315 18.6559C3.12206 17.8303 2.0127 17.0138 1.42506 16.2084C0.837431 15.4047 0.542699 14.4857 0.542699 13.4533C0.542699 12.1059 1.01134 10.9856 1.94862 10.0922C2.88591 9.2007 4.07032 8.75586 5.50005 8.75586C6.92977 8.75586 8.24416 9.29589 9.62812 10.3778C10.1279 10.7677 10.1901 11.4908 9.74528 11.9412H9.74894Z" fill="#231F20" stroke="#231F20" stroke-width="0.183063" stroke-miterlimit="10"/>
<path d="M23.199 8.75403C25.9834 8.75403 28.29 9.74257 30.1206 11.7215C31.7846 13.5265 32.6158 15.6628 32.6158 18.1323C32.6158 20.6019 31.737 22.7785 29.9778 24.6311C28.2204 26.4855 25.9596 27.4118 23.199 27.4118C20.4384 27.4118 18.1611 26.4837 16.4037 24.6311C14.6463 22.7785 13.7676 20.611 13.7676 18.1323C13.7676 15.6537 14.5987 13.543 16.2627 11.7398C18.0934 9.74989 20.4054 8.75586 23.2008 8.75586L23.199 8.75403ZM23.1917 10.9874C21.2585 10.9874 19.5963 11.6885 18.2087 13.0908C16.8192 14.4931 16.1254 16.19 16.1254 18.1799C16.1254 19.4632 16.4421 20.6586 17.0755 21.768C17.7089 22.8773 18.5638 23.7341 19.6421 24.3364C20.7203 24.9405 21.9029 25.2407 23.1917 25.2407C24.4804 25.2407 25.663 24.9386 26.7413 24.3364C27.8195 23.7322 28.6744 22.8773 29.3078 21.768C29.9412 20.6586 30.2579 19.4632 30.2579 18.1799C30.2579 16.19 29.5604 14.4931 28.1655 13.0908C26.7705 11.6885 25.1138 10.9874 23.1917 10.9874Z" fill="#231F20" stroke="#231F20" stroke-width="0.183063" stroke-miterlimit="10"/>
<path d="M53.4373 13.5156C52.9741 13.7975 52.3792 13.7078 52.0075 13.3161C50.4845 11.7088 48.511 10.9051 46.0891 10.9051C43.8887 10.9051 42.0617 11.6008 40.6064 12.9902C39.1528 14.3797 38.4243 16.0693 38.4243 18.0574C38.4243 19.3498 38.7593 20.5654 39.4274 21.7059C40.0956 22.8463 41.0146 23.7305 42.1807 24.3621C43.3468 24.9918 44.6557 25.3067 46.1038 25.3067C48.4415 25.3067 50.4039 24.5012 51.9856 22.8884C52.3645 22.5022 52.9668 22.4253 53.4244 22.72H53.4281C54.0139 23.1008 54.1054 23.9008 53.635 24.4097C52.8972 25.2042 52.0094 25.8522 50.9714 26.3538C49.516 27.0586 47.8575 27.4101 45.9976 27.4101C43.1418 27.4101 40.7711 26.5186 38.8892 24.7356C37.0074 22.9525 36.0664 20.7832 36.0664 18.2277C36.0664 16.5105 36.5058 14.9142 37.3863 13.4406C38.2668 11.9669 39.475 10.8173 41.0146 9.99166C42.5542 9.16604 44.275 8.75232 46.1788 8.75232C47.3742 8.75232 48.5293 8.93172 49.6405 9.29052C50.7536 9.64933 51.6963 10.118 52.4725 10.6928C52.9247 11.0296 53.3384 11.4195 53.71 11.8626C54.1457 12.3806 54.0139 13.1586 53.4336 13.5138L53.4373 13.5156Z" fill="#231F20" stroke="#231F20" stroke-width="0.183063" stroke-miterlimit="10"/>
<path d="M59.7262 1.90381C60.2113 1.90381 60.6323 2.06307 60.9875 2.37977C61.3994 2.74773 61.6465 3.2896 61.6428 3.84245C61.6392 4.34038 61.4634 4.77241 61.1156 5.13853C60.7531 5.5193 60.2369 5.74264 59.7115 5.74081C59.1989 5.73715 58.7559 5.54859 58.3843 5.17515C58.0127 4.8017 57.826 4.35868 57.8223 3.84428C57.8186 3.29326 58.064 2.75139 58.4758 2.38343C58.831 2.0649 59.2484 1.90564 59.7243 1.90564L59.7262 1.90381ZM59.7353 9.34349C60.3779 9.34349 60.8978 9.86339 60.8978 10.5059V26.2494C60.8978 26.8919 60.3779 27.4118 59.7353 27.4118C59.0928 27.4118 58.5729 26.8919 58.5729 26.2494V10.5059C58.5729 9.86339 59.0928 9.34349 59.7353 9.34349Z" fill="#231F20" stroke="#231F20" stroke-width="0.183063" stroke-miterlimit="10"/>
<path d="M83.7311 10.3357V26.2878C83.7311 26.9102 83.2185 27.4136 82.5851 27.4136C81.9517 27.4136 81.4392 26.9102 81.4392 26.2878V23.9062C80.4653 25.0704 79.3724 25.9455 78.1587 26.5313C76.9468 27.1189 75.6196 27.4118 74.1807 27.4118C71.6233 27.4118 69.4394 26.502 67.6289 24.6805C65.8202 22.8609 64.9141 20.6458 64.9141 18.0372C64.9141 15.6207 65.8605 13.2977 67.5703 11.5622C69.4138 9.69131 71.6398 8.75403 74.2466 8.75403C75.7294 8.75403 77.0731 9.06341 78.274 9.68399C79.4749 10.3027 80.5293 11.2327 81.4373 12.472V10.3357C81.4373 9.71328 81.9499 9.20986 82.5833 9.20986C83.2167 9.20986 83.7293 9.71328 83.7293 10.3357H83.7311ZM74.4388 10.9563C73.1446 10.9563 71.951 11.2693 70.8563 11.8936C69.7616 12.5178 68.8902 13.3947 68.244 14.5242C67.5978 15.6537 67.2737 16.8491 67.2737 18.1086C67.2737 19.368 67.5996 20.5524 68.2531 21.6929C68.9048 22.8334 69.7817 23.7213 70.8819 24.3565C71.9821 24.9917 73.1629 25.3102 74.4242 25.3102C75.6855 25.3102 76.901 24.9954 78.0397 24.3656C79.1783 23.7359 80.0552 22.8828 80.6685 21.8083C81.2817 20.7337 81.5893 19.5218 81.5893 18.1745C81.5893 16.1223 80.901 14.4052 79.5243 13.0267C78.1477 11.6483 76.4525 10.9581 74.4407 10.9581L74.4388 10.9563Z" fill="#231F20" stroke="#231F20" stroke-width="0.183063" stroke-miterlimit="10"/>
<path d="M89.7757 1.90381C90.4183 1.90381 90.9382 2.43469 90.9382 3.08823V26.2292C90.9382 26.8828 90.4183 27.4136 89.7757 27.4136C89.1332 27.4136 88.6133 26.8828 88.6133 26.2292V3.08823C88.6133 2.43469 89.1332 1.90381 89.7757 1.90381Z" fill="#231F20" stroke="#231F20" stroke-width="0.183063" stroke-miterlimit="10"/>
<path d="M151.209 2.4951V26.0059C151.209 26.6375 150.697 27.15 150.065 27.15C149.432 27.15 148.919 26.6393 148.921 26.0059C148.921 24.9533 148.921 23.5547 148.921 23.5547C147.947 24.7391 146.854 25.6288 145.642 26.2274C144.43 26.8242 143.105 27.1226 141.666 27.1226C139.111 27.1226 136.928 26.1963 135.118 24.3437C133.34 22.5222 132.436 20.3126 132.405 17.7168C132.374 15.121 133.366 12.7064 135.144 10.9068C136.969 9.05974 139.166 8.13527 141.732 8.13527C143.215 8.13527 144.557 8.45014 145.758 9.08171C146.959 9.71327 148.013 10.6597 148.919 11.921V2.4951C148.919 1.86353 149.432 1.35095 150.063 1.35095C150.695 1.35095 151.207 1.86353 151.207 2.4951H151.209ZM141.924 10.3778C140.632 10.3778 139.438 10.6963 138.344 11.3316C137.249 11.9668 136.379 12.8601 135.731 14.0098C135.083 15.1594 134.761 16.3749 134.761 17.6564C134.761 18.9378 135.087 20.1442 135.739 21.3048C136.39 22.4654 137.267 23.3698 138.366 24.016C139.466 24.6622 140.645 24.9862 141.906 24.9862C143.167 24.9862 144.383 24.6659 145.52 24.0251C146.658 23.3844 147.533 22.5167 148.147 21.422C148.76 20.3273 149.067 19.0953 149.067 17.7241C149.067 15.6354 148.379 13.8889 147.002 12.4848C145.626 11.0826 143.932 10.3796 141.921 10.3796L141.924 10.3778Z" fill="#231F20" stroke="#231F20" stroke-width="0.183063" stroke-miterlimit="10"/>
<path d="M174.647 2.49522L174.506 25.9822C174.502 26.6138 173.989 27.1245 173.358 27.1245C172.723 27.1245 172.21 26.6101 172.21 25.9767V23.5566C171.234 24.741 170.141 25.6307 168.931 26.2293C167.719 26.8261 166.394 27.1245 164.955 27.1245C162.4 27.1245 160.217 26.1982 158.407 24.3456C156.629 22.5241 155.725 20.3146 155.694 17.7187C155.665 15.1888 156.655 12.7083 158.433 10.9088C160.258 9.06169 162.455 8.13722 165.021 8.13722C166.504 8.13722 167.846 8.45209 169.047 9.08366C170.248 9.71523 171.302 10.6617 172.208 11.923L172.358 2.49705C172.358 1.86548 172.871 1.35291 173.502 1.35291C174.134 1.35291 174.647 1.86548 174.647 2.49705V2.49522ZM165.211 10.3779C163.919 10.3779 162.725 10.6964 161.631 11.3317C160.536 11.9669 159.666 12.8602 159.018 14.0099C158.372 15.1595 158.048 16.3751 158.048 17.6565C158.048 18.9379 158.374 20.1443 159.026 21.3049C159.677 22.4656 160.554 23.3699 161.653 24.0161C162.753 24.6623 163.932 24.9863 165.193 24.9863C166.454 24.9863 167.67 24.666 168.807 24.0253C169.945 23.3845 170.82 22.5168 171.434 21.4221C172.047 20.3274 172.355 19.0954 172.355 17.7242C172.355 15.6355 171.666 13.8891 170.29 12.485C168.913 11.0827 167.22 10.3797 165.208 10.3797L165.211 10.3779Z" fill="#231F20" stroke="#231F20" stroke-width="0.183063" stroke-miterlimit="10"/>
<path d="M180.065 8.60023C180.721 8.60023 181.251 9.13112 181.251 9.78648V11.24C181.96 10.2002 182.707 9.42219 183.492 8.90778C184.277 8.39337 185.096 8.13708 185.949 8.13708C186.128 8.13708 186.311 8.15356 186.498 8.18468C187.3 8.32198 187.703 9.24279 187.274 9.93476C187.02 10.3467 186.531 10.5663 186.06 10.4565C185.881 10.4144 185.716 10.3924 185.568 10.3924C184.794 10.3924 184.047 10.711 183.327 11.3462C182.608 11.9832 182.059 12.9699 181.683 14.31C181.396 15.3388 181.251 17.4202 181.251 20.5506V25.9729C181.251 26.6283 180.721 27.1592 180.065 27.1592C179.41 27.1592 178.879 26.6283 178.879 25.9729V9.78648C178.879 9.13112 179.41 8.60023 180.065 8.60023Z" fill="#231F20" stroke="#231F20" stroke-width="0.183063" stroke-miterlimit="10"/>
<path d="M206.108 21.1512C206.687 21.455 206.899 22.1928 206.551 22.7475C206.057 23.5365 205.511 24.2028 204.918 24.7502C204.076 25.5245 203.13 26.114 202.077 26.5186C201.025 26.9231 199.835 27.1245 198.506 27.1245C195.56 27.1245 193.255 26.1598 191.595 24.2285C189.935 22.2971 189.104 20.115 189.104 17.6803C189.104 15.3902 189.806 13.349 191.212 11.555C192.995 9.27586 195.383 8.13538 198.372 8.13538C201.361 8.13538 203.91 9.30332 205.748 11.6374C207.055 13.2868 207.719 15.3444 207.741 17.8121H191.491C191.535 19.91 192.205 21.629 193.503 22.9708C194.799 24.3127 196.399 24.9827 198.304 24.9827C199.223 24.9827 200.118 24.8234 200.988 24.503C201.858 24.1845 202.597 23.7598 203.207 23.2308C203.657 22.8408 204.133 22.2733 204.636 21.5301C204.96 21.0505 205.594 20.8839 206.106 21.153L206.108 21.1512ZM205.187 15.8039C204.876 14.5646 204.426 13.5742 203.833 12.8328C203.254 12.1097 202.495 11.5239 201.552 11.0735C200.572 10.6049 199.489 10.3596 198.403 10.3596C196.631 10.3596 195.11 10.9307 193.836 12.0694C192.904 12.8987 192.201 14.1435 191.725 15.8039H205.186H205.187Z" fill="#231F20" stroke="#231F20" stroke-width="0.183063" stroke-miterlimit="10"/>
<path d="M220.37 11.3865C219.982 11.7874 219.358 11.813 218.918 11.4688C217.933 10.6963 216.965 10.31 216.015 10.31C215.259 10.31 214.615 10.559 214.076 11.0569C213.538 11.5549 213.269 12.1352 213.269 12.7997C213.269 13.3855 213.491 13.9438 213.934 14.4766C214.377 15.0184 215.308 15.6555 216.727 16.3859C218.457 17.2829 219.632 18.1451 220.253 18.9762C220.862 19.8165 221.168 20.7629 221.168 21.8137C221.168 23.2965 220.646 24.5523 219.605 25.5812C218.563 26.61 217.26 27.1244 215.698 27.1244C214.657 27.1244 213.661 26.8974 212.714 26.4452C212.11 26.156 211.574 25.7972 211.103 25.3688C210.662 24.9661 210.607 24.2924 211.001 23.8439L211.07 23.7652C211.47 23.313 212.149 23.2929 212.605 23.6865C213.558 24.5084 214.556 24.9185 215.599 24.9185C216.531 24.9185 217.324 24.6201 217.977 24.0215C218.633 23.4247 218.959 22.7217 218.959 21.9144C218.959 21.2499 218.743 20.6586 218.311 20.1387C217.879 19.6298 216.903 18.9872 215.383 18.2129C213.752 17.3726 212.645 16.5415 212.057 15.7232C211.47 14.9049 211.177 13.9695 211.177 12.9187C211.177 11.5457 211.645 10.4071 212.581 9.49907C213.518 8.59108 214.701 8.13892 216.13 8.13892C217.56 8.13892 218.887 8.69543 220.277 9.80662C220.767 10.1984 220.802 10.9379 220.366 11.3883L220.37 11.3865Z" fill="#231F20" stroke="#231F20" stroke-width="0.183063" stroke-miterlimit="10"/>
<path d="M233.565 11.3865C233.177 11.7874 232.553 11.813 232.114 11.4688C231.129 10.6963 230.16 10.31 229.21 10.31C228.454 10.31 227.81 10.559 227.272 11.0569C226.733 11.5549 226.464 12.1352 226.464 12.7997C226.464 13.3855 226.686 13.9438 227.129 14.4766C227.572 15.0184 228.504 15.6555 229.922 16.3859C231.652 17.2829 232.828 18.1451 233.448 18.9762C234.058 19.8165 234.364 20.7629 234.364 21.8137C234.364 23.2965 233.842 24.5523 232.8 25.5812C231.759 26.61 230.455 27.1244 228.894 27.1244C227.852 27.1244 226.856 26.8974 225.91 26.4452C225.306 26.156 224.769 25.7972 224.299 25.3688C223.858 24.9661 223.803 24.2924 224.196 23.8439L224.266 23.7652C224.665 23.313 225.344 23.2929 225.8 23.6865C226.754 24.5084 227.751 24.9185 228.795 24.9185C229.727 24.9185 230.519 24.6201 231.173 24.0215C231.828 23.4247 232.154 22.7217 232.154 21.9144C232.154 21.2499 231.938 20.6586 231.506 20.1387C231.074 19.6298 230.098 18.9872 228.579 18.2129C226.948 17.3726 225.84 16.5415 225.252 15.7232C224.665 14.9049 224.372 13.9695 224.372 12.9187C224.372 11.5457 224.841 10.4071 225.776 9.49907C226.713 8.59108 227.896 8.13892 229.326 8.13892C230.755 8.13892 232.083 8.69543 233.472 9.80662C233.963 10.1984 233.997 10.9379 233.562 11.3883L233.565 11.3865Z" fill="#231F20" stroke="#231F20" stroke-width="0.183063" stroke-miterlimit="10"/>
<path d="M98.2837 28.9056L95.0819 28.8965L95.0801 28.8507H98.2837V28.9056Z" fill="#F15A47"/>
</g>
<defs>
<clipPath id="clip0_63_1486">
<rect width="234.458" height="34.2694" fill="white"/>
</clipPath>
</defs>
</svg>
