<svg width="169" height="24" viewBox="0 0 169 24" fill="none" xmlns="http://www.w3.org/2000/svg">
<path d="M7.76459 8.15264L7.75689 8.16034C7.4851 8.43598 7.0492 8.45136 6.74151 8.21418C6.05177 7.68341 5.37356 7.41675 4.70818 7.41675C4.17997 7.41675 3.72612 7.58854 3.3492 7.93085C2.97228 8.27316 2.78382 8.67316 2.78382 9.12957C2.78382 9.53341 2.93894 9.91803 3.25048 10.2834C3.56074 10.6565 4.21459 11.0937 5.20818 11.5962C6.41971 12.2129 7.24407 12.8078 7.67869 13.3783C8.10561 13.9578 8.31971 14.6078 8.31971 15.3321C8.31971 16.3526 7.95433 17.2167 7.22484 17.9244C6.49536 18.6321 5.58253 18.9873 4.48766 18.9873C3.75818 18.9873 3.06074 18.8308 2.39664 18.5193C1.95305 18.3116 1.56074 18.0501 1.21971 17.736C0.932534 17.4719 0.931252 17.0244 1.19023 16.7347L1.24664 16.6719C1.5133 16.3744 1.97997 16.3283 2.28253 16.5898C2.96202 17.1757 3.67356 17.4693 4.41715 17.4693C5.06971 17.4693 5.62484 17.2642 6.08382 16.8526C6.54279 16.4411 6.77228 15.9578 6.77228 15.4014C6.77228 14.945 6.621 14.5373 6.31715 14.1796C6.01459 13.8296 5.32997 13.3873 4.26587 12.8552C3.12356 12.277 2.34664 11.7052 1.9351 11.1411C1.52356 10.5783 1.31715 9.9347 1.31715 9.21162C1.31715 8.26803 1.64535 7.48341 2.30177 6.85777C2.95818 6.23341 3.78766 5.92188 4.78894 5.92188C5.79023 5.92188 6.71074 6.30008 7.67997 7.05777C8.02997 7.33085 8.07356 7.83726 7.76202 8.15264H7.76459Z" fill="#231F20" stroke="#231F20" stroke-width="0.128205" stroke-miterlimit="10"/>
<path d="M17.3434 5.9209C19.2934 5.9209 20.9088 6.61321 22.1908 7.9991C23.3562 9.26321 23.9383 10.7594 23.9383 12.4888C23.9383 14.2183 23.3229 15.7427 22.0908 17.0401C20.8601 18.3388 19.2767 18.9876 17.3434 18.9876C15.4101 18.9876 13.8152 18.3376 12.5844 17.0401C11.3537 15.7427 10.7383 14.2247 10.7383 12.4888C10.7383 10.753 11.3203 9.27474 12.4857 8.01192C13.7678 6.61833 15.387 5.92218 17.3447 5.92218L17.3434 5.9209ZM17.3383 7.485C15.9844 7.485 14.8203 7.97603 13.8485 8.95808C12.8755 9.94013 12.3896 11.1286 12.3896 12.5222C12.3896 13.4209 12.6114 14.2581 13.0549 15.035C13.4985 15.8119 14.0973 16.4119 14.8524 16.8337C15.6075 17.2568 16.4357 17.4671 17.3383 17.4671C18.2408 17.4671 19.0691 17.2555 19.8242 16.8337C20.5793 16.4106 21.178 15.8119 21.6216 15.035C22.0652 14.2581 22.287 13.4209 22.287 12.5222C22.287 11.1286 21.7985 9.94013 20.8216 8.95808C19.8447 7.97603 18.6844 7.485 17.3383 7.485Z" fill="#231F20" stroke="#231F20" stroke-width="0.128205" stroke-miterlimit="10"/>
<path d="M38.5248 9.2568C38.2004 9.45423 37.7837 9.39141 37.5235 9.11705C36.4568 7.99141 35.0748 7.42859 33.3786 7.42859C31.8376 7.42859 30.5581 7.91577 29.5389 8.88885C28.5209 9.86192 28.0107 11.0453 28.0107 12.4376C28.0107 13.3427 28.2453 14.194 28.7132 14.9927C29.1812 15.7914 29.8248 16.4106 30.6414 16.853C31.4581 17.294 32.3748 17.5145 33.3889 17.5145C35.026 17.5145 36.4004 16.9504 37.5081 15.8209C37.7735 15.5504 38.1953 15.4965 38.5158 15.703H38.5184C38.9286 15.9696 38.9927 16.5299 38.6632 16.8863C38.1466 17.4427 37.5248 17.8965 36.7978 18.2478C35.7786 18.7414 34.6171 18.9876 33.3145 18.9876C31.3145 18.9876 29.6542 18.3632 28.3363 17.1145C27.0183 15.8658 26.3594 14.3465 26.3594 12.5568C26.3594 11.3542 26.6671 10.2363 27.2837 9.20423C27.9004 8.17218 28.7466 7.36705 29.8248 6.78885C30.903 6.21064 32.1081 5.9209 33.4414 5.9209C34.2786 5.9209 35.0876 6.04654 35.8658 6.29782C36.6453 6.5491 37.3055 6.87731 37.8491 7.27987C38.1658 7.51577 38.4555 7.78885 38.7158 8.0991C39.0209 8.46192 38.9286 9.0068 38.5222 9.25551L38.5248 9.2568Z" fill="#231F20" stroke="#231F20" stroke-width="0.128205" stroke-miterlimit="10"/>
<path d="M42.6498 1.12354C42.9895 1.12354 43.2844 1.23507 43.5331 1.45687C43.8216 1.71456 43.9946 2.09405 43.9921 2.48123C43.9895 2.82995 43.8664 3.13251 43.6228 3.38892C43.369 3.65559 43.0075 3.812 42.6395 3.81071C42.2805 3.80815 41.9703 3.6761 41.71 3.41456C41.4498 3.15302 41.319 2.84277 41.3164 2.48251C41.3139 2.09661 41.4857 1.71713 41.7741 1.45943C42.0228 1.23636 42.3152 1.12482 42.6485 1.12482L42.6498 1.12354ZM42.6562 6.33379C43.1062 6.33379 43.4703 6.69789 43.4703 7.14789V18.1735C43.4703 18.6235 43.1062 18.9876 42.6562 18.9876C42.2062 18.9876 41.8421 18.6235 41.8421 18.1735V7.14789C41.8421 6.69789 42.2062 6.33379 42.6562 6.33379Z" fill="#231F20" stroke="#231F20" stroke-width="0.128205" stroke-miterlimit="10"/>
<path d="M59.5923 7.02713V18.1989C59.5923 18.6348 59.2333 18.9874 58.7897 18.9874C58.3461 18.9874 57.9871 18.6348 57.9871 18.1989V16.531C57.3051 17.3464 56.5397 17.9592 55.6897 18.3694C54.841 18.781 53.9115 18.9861 52.9038 18.9861C51.1128 18.9861 49.5833 18.3489 48.3153 17.0733C47.0487 15.7989 46.4141 14.2476 46.4141 12.4207C46.4141 10.7284 47.0769 9.10149 48.2743 7.8861C49.5653 6.57584 51.1243 5.91943 52.95 5.91943C53.9884 5.91943 54.9294 6.1361 55.7705 6.57072C56.6115 7.00405 57.35 7.65533 57.9859 8.52328V7.02713C57.9859 6.59123 58.3448 6.23866 58.7884 6.23866C59.232 6.23866 59.591 6.59123 59.591 7.02713H59.5923ZM53.0846 7.46174C52.1782 7.46174 51.3423 7.68097 50.5756 8.11815C49.8089 8.55533 49.1987 9.16943 48.7461 9.96046C48.2936 10.7515 48.0666 11.5887 48.0666 12.4707C48.0666 13.3528 48.2948 14.1823 48.7525 14.981C49.2089 15.7797 49.823 16.4015 50.5936 16.8464C51.3641 17.2912 52.191 17.5143 53.0743 17.5143C53.9577 17.5143 54.8089 17.2938 55.6064 16.8528C56.4038 16.4117 57.0179 15.8143 57.4474 15.0617C57.8769 14.3092 58.0923 13.4605 58.0923 12.5169C58.0923 11.0797 57.6102 9.87713 56.6461 8.91174C55.682 7.94636 54.4948 7.46302 53.0859 7.46302L53.0846 7.46174Z" fill="#231F20" stroke="#231F20" stroke-width="0.128205" stroke-miterlimit="10"/>
<path d="M62.8258 1.12207C63.2758 1.12207 63.6399 1.49387 63.6399 1.95156V18.158C63.6399 18.6157 63.2758 18.9875 62.8258 18.9875C62.3758 18.9875 62.0117 18.6157 62.0117 18.158V1.95156C62.0117 1.49387 62.3758 1.12207 62.8258 1.12207Z" fill="#231F20" stroke="#231F20" stroke-width="0.128205" stroke-miterlimit="10"/>
<path d="M74.2539 22.8784H76.7975" stroke="#75C159" stroke-width="2.24359" stroke-linecap="round" stroke-linejoin="round"/>
<path d="M80.9492 7.55762V12.441" stroke="#EF4965" stroke-width="2.24359" stroke-linecap="round" stroke-linejoin="round"/>
<path d="M82.3681 1.12207H71.0938" stroke="#F15A47" stroke-width="2.24359" stroke-linecap="round" stroke-linejoin="round"/>
<path d="M89.3766 6.75284V4.75797C89.3766 2.75028 87.7484 1.12207 85.7407 1.12207H82.6445" stroke="#76C158" stroke-width="2.24359" stroke-linecap="round" stroke-linejoin="round"/>
<path d="M72.5117 12.3618C72.5874 10.0324 74.5361 8.20543 76.8656 8.28108C79.0886 8.35287 80.8745 10.1388 80.9463 12.3618" stroke="#EF4965" stroke-width="2.24359" stroke-linecap="round" stroke-linejoin="round"/>
<path d="M80.9476 12.1357C80.8719 14.4652 82.695 16.7204 85.0245 16.796C87.354 16.8716 89.3027 15.0447 89.3784 12.7152C89.3809 12.6242 89.3809 12.5332 89.3784 12.4422" stroke="#FFC840" stroke-width="2.24359" stroke-linecap="round" stroke-linejoin="round"/>
<path d="M82.0434 12.2937H82.0704C82.0999 10.7078 81.2665 9.1604 79.8268 8.14502L79.8242 12.2912L82.0434 12.2937Z" fill="#E62351"/>
<path d="M80.9438 12.2939L80.9463 12.4452C80.8707 14.7747 78.922 16.6016 76.5925 16.526C74.3694 16.4542 72.5835 14.6683 72.5117 12.4452V12.3606" stroke="#7082BB" stroke-width="2.24359" stroke-linecap="round" stroke-linejoin="round"/>
<path opacity="0.75" d="M75.5352 8.28125C75.5352 8.90048 76.0249 9.40176 76.6287 9.40176C77.2326 9.40176 77.7223 8.90048 77.7223 8.28125H75.5352Z" fill="#E52552"/>
<path d="M75.5352 8.28067C75.5352 7.66144 76.0249 7.16016 76.6287 7.16016C77.2326 7.16016 77.7223 7.66144 77.7223 8.28067H75.5352Z" fill="#E52552"/>
<path d="M71.3906 12.2939C71.3906 12.9132 71.8932 13.4157 72.5124 13.4157C73.1317 13.4157 73.6342 12.9132 73.6342 12.2939H71.3906Z" fill="#EF4965"/>
<path d="M71.3906 12.2942C71.3906 11.6749 71.8932 11.1724 72.5124 11.1724C73.1317 11.1724 73.6342 11.6749 73.6342 12.2942H71.3906Z" fill="#E52553"/>
<path d="M73.3964 1.12207H71.4015C69.3938 1.12207 67.7656 2.75028 67.7656 4.75797V5.66438" stroke="#F15A47" stroke-width="2.24359" stroke-linecap="round" stroke-linejoin="round"/>
<path d="M67.7617 20.2056C68.1925 21.7889 69.6079 22.8774 71.3271 22.8774H74.4963" stroke="#75C15A" stroke-width="2.24359" stroke-linecap="round" stroke-linejoin="round"/>
<path d="M66.6406 20.2056C66.6406 20.8312 67.1432 21.3389 67.7624 21.3389C68.3817 21.3389 68.8842 20.8312 68.8842 20.2056H66.6406Z" fill="#F15A47"/>
<path d="M66.6406 20.2056C66.6406 19.58 67.1432 19.0723 67.7624 19.0723C68.3817 19.0723 68.8842 19.58 68.8842 20.2056H66.6406Z" fill="#F15A47"/>
<path d="M79.8242 12.2705C79.8242 12.8846 80.3268 13.3833 80.9473 13.3833C81.5678 13.3833 82.0704 12.8846 82.0704 12.2705H79.8242Z" fill="#E52553"/>
<path d="M79.8242 12.2705C79.8242 11.6564 80.3268 11.1577 80.9473 11.1577C81.5678 11.1577 82.0704 11.6564 82.0704 12.2705H79.8242Z" fill="#EF4965"/>
<path d="M68.8842 20.244L66.6419 20.2376L66.6406 20.2056H68.8842V20.244Z" fill="#F15A47"/>
<path d="M67.7656 20.2055V4.99268" stroke="#FFC840" stroke-width="2.24359" stroke-linecap="round" stroke-linejoin="round"/>
<path d="M89.3828 5.81543V12.6372" stroke="#7082BB" stroke-width="2.24359" stroke-linecap="round" stroke-linejoin="round"/>
<path d="M105.553 2.7173V19.1827C105.553 19.625 105.194 19.984 104.751 19.984C104.308 19.984 103.949 19.6263 103.95 19.1827C103.95 18.4455 103.95 17.466 103.95 17.466C103.268 18.2955 102.503 18.9186 101.654 19.3378C100.805 19.7558 99.8769 19.9647 98.8692 19.9647C97.0795 19.9647 95.5513 19.316 94.2833 18.0186C93.0384 16.7429 92.4051 15.1955 92.3833 13.3776C92.3615 11.5596 93.0564 9.86858 94.3013 8.60832C95.5795 7.31473 97.1179 6.6673 98.9154 6.6673C99.9538 6.6673 100.894 6.88781 101.735 7.33012C102.576 7.77243 103.314 8.43525 103.949 9.31858V2.7173C103.949 2.27499 104.308 1.91602 104.75 1.91602C105.192 1.91602 105.551 2.27499 105.551 2.7173H105.553ZM99.05 8.23781C98.1448 8.23781 97.309 8.46089 96.5423 8.90576C95.7756 9.35063 95.1666 9.97627 94.7128 10.7814C94.2589 11.5865 94.0333 12.4378 94.0333 13.3352C94.0333 14.2327 94.2615 15.0776 94.7179 15.8904C95.1743 16.7032 95.7884 17.3365 96.5577 17.7891C97.3282 18.2417 98.1538 18.4686 99.0372 18.4686C99.9205 18.4686 100.772 18.2442 101.568 17.7955C102.365 17.3468 102.978 16.7391 103.408 15.9724C103.837 15.2058 104.053 14.3429 104.053 13.3827C104.053 11.9199 103.57 10.6968 102.606 9.71345C101.642 8.7314 100.456 8.23909 99.0474 8.23909L99.05 8.23781Z" fill="#231F20" stroke="#231F20" stroke-width="0.128205" stroke-miterlimit="10"/>
<path d="M121.246 2.73506L121.147 19.1838C121.145 19.6261 120.786 19.9838 120.344 19.9838C119.899 19.9838 119.54 19.6235 119.54 19.1799V17.4851C118.856 18.3145 118.091 18.9376 117.244 19.3569C116.395 19.7748 115.467 19.9838 114.459 19.9838C112.669 19.9838 111.141 19.3351 109.873 18.0376C108.628 16.762 107.995 15.2145 107.973 13.3966C107.953 11.6248 108.646 9.88762 109.891 8.62737C111.169 7.33378 112.708 6.68634 114.505 6.68634C115.544 6.68634 116.483 6.90685 117.324 7.34916C118.165 7.79147 118.904 8.45429 119.538 9.33762L119.644 2.73634C119.644 2.29403 120.003 1.93506 120.445 1.93506C120.887 1.93506 121.246 2.29403 121.246 2.73634V2.73506ZM114.638 8.25557C113.733 8.25557 112.897 8.47865 112.131 8.92352C111.364 9.36839 110.755 9.99403 110.301 10.7992C109.849 11.6043 109.622 12.4556 109.622 13.353C109.622 14.2504 109.85 15.0953 110.306 15.9081C110.763 16.721 111.377 17.3543 112.146 17.8069C112.917 18.2594 113.742 18.4863 114.626 18.4863C115.509 18.4863 116.36 18.262 117.156 17.8133C117.954 17.3645 118.567 16.7569 118.996 15.9902C119.426 15.2235 119.641 14.3607 119.641 13.4004C119.641 11.9376 119.159 10.7145 118.195 9.73121C117.231 8.74916 116.045 8.25685 114.636 8.25685L114.638 8.25557Z" fill="#231F20" stroke="#231F20" stroke-width="0.128205" stroke-miterlimit="10"/>
<path d="M124.503 6.98647C124.962 6.98647 125.333 7.35826 125.333 7.81724V8.83519C125.83 8.10698 126.353 7.56211 126.903 7.20185C127.453 6.8416 128.026 6.66211 128.623 6.66211C128.749 6.66211 128.877 6.67365 129.008 6.69544C129.569 6.7916 129.851 7.43647 129.551 7.92108C129.373 8.20955 129.031 8.36339 128.701 8.28647C128.576 8.25698 128.46 8.2416 128.356 8.2416C127.814 8.2416 127.291 8.46467 126.787 8.90955C126.283 9.3557 125.899 10.0467 125.636 10.9852C125.435 11.7057 125.333 13.1634 125.333 15.3557V19.1531C125.333 19.6121 124.962 19.9839 124.503 19.9839C124.044 19.9839 123.672 19.6121 123.672 19.1531V7.81724C123.672 7.35826 124.044 6.98647 124.503 6.98647Z" fill="#231F20" stroke="#231F20" stroke-width="0.128205" stroke-miterlimit="10"/>
<path d="M144.003 15.8004C144.408 16.0133 144.557 16.5299 144.313 16.9184C143.967 17.471 143.585 17.9376 143.169 18.321C142.58 18.8633 141.917 19.2761 141.18 19.5594C140.442 19.8428 139.609 19.9838 138.678 19.9838C136.616 19.9838 135.001 19.3081 133.839 17.9556C132.676 16.603 132.094 15.0748 132.094 13.3697C132.094 11.7658 132.586 10.3363 133.571 9.07993C134.819 7.48378 136.491 6.68506 138.585 6.68506C140.678 6.68506 142.463 7.50301 143.75 9.13762C144.666 10.2928 145.131 11.7338 145.146 13.462H133.766C133.796 14.9312 134.266 16.1351 135.175 17.0748C136.082 18.0145 137.203 18.4838 138.537 18.4838C139.181 18.4838 139.808 18.3722 140.417 18.1479C141.026 17.9248 141.544 17.6274 141.971 17.2569C142.286 16.9838 142.619 16.5863 142.972 16.0658C143.199 15.7299 143.642 15.6133 144.001 15.8017L144.003 15.8004ZM143.358 12.0556C143.14 11.1876 142.825 10.494 142.409 9.9748C142.004 9.46839 141.472 9.05814 140.812 8.74275C140.126 8.41455 139.367 8.24275 138.607 8.24275C137.366 8.24275 136.3 8.64275 135.408 9.44019C134.755 10.021 134.263 10.8928 133.93 12.0556H143.357H143.358Z" fill="#231F20" stroke="#231F20" stroke-width="0.128205" stroke-miterlimit="10"/>
<path d="M154.313 8.96235C154.041 9.24312 153.604 9.26107 153.297 9.02004C152.607 8.47901 151.929 8.2085 151.263 8.2085C150.734 8.2085 150.282 8.38286 149.906 8.73158C149.529 9.0803 149.34 9.48671 149.34 9.95209C149.34 10.3623 149.495 10.7534 149.806 11.1265C150.116 11.5059 150.768 11.9521 151.762 12.4636C152.973 13.0918 153.797 13.6957 154.231 14.2777C154.658 14.8662 154.872 15.529 154.872 16.2649C154.872 17.3034 154.507 18.1829 153.777 18.9034C153.048 19.6239 152.135 19.9841 151.041 19.9841C150.312 19.9841 149.615 19.8252 148.952 19.5085C148.529 19.3059 148.153 19.0547 147.823 18.7547C147.515 18.4726 147.476 18.0008 147.752 17.6867L147.8 17.6316C148.08 17.3149 148.556 17.3008 148.875 17.5765C149.543 18.1521 150.241 18.4393 150.972 18.4393C151.625 18.4393 152.18 18.2303 152.638 17.8111C153.097 17.3931 153.325 16.9008 153.325 16.3354C153.325 15.87 153.173 15.4559 152.871 15.0918C152.568 14.7354 151.885 14.2854 150.821 13.7431C149.679 13.1547 148.903 12.5726 148.491 11.9995C148.08 11.4265 147.875 10.7713 147.875 10.0354C147.875 9.07389 148.203 8.27645 148.858 7.64055C149.515 7.00466 150.343 6.68799 151.344 6.68799C152.345 6.68799 153.275 7.07773 154.248 7.85594C154.591 8.1303 154.616 8.64824 154.311 8.96363L154.313 8.96235Z" fill="#231F20" stroke="#231F20" stroke-width="0.128205" stroke-miterlimit="10"/>
<path d="M164.044 8.96235C163.772 9.24312 163.335 9.26107 163.027 9.02004C162.337 8.47901 161.659 8.2085 160.994 8.2085C160.464 8.2085 160.013 8.38286 159.636 8.73158C159.259 9.0803 159.071 9.48671 159.071 9.95209C159.071 10.3623 159.226 10.7534 159.536 11.1265C159.846 11.5059 160.499 11.9521 161.492 12.4636C162.704 13.0918 163.527 13.6957 163.962 14.2777C164.389 14.8662 164.603 15.529 164.603 16.2649C164.603 17.3034 164.237 18.1829 163.508 18.9034C162.778 19.6239 161.865 19.9841 160.772 19.9841C160.042 19.9841 159.345 19.8252 158.682 19.5085C158.259 19.3059 157.883 19.0547 157.554 18.7547C157.245 18.4726 157.207 18.0008 157.482 17.6867L157.531 17.6316C157.81 17.3149 158.286 17.3008 158.605 17.5765C159.273 18.1521 159.972 18.4393 160.703 18.4393C161.355 18.4393 161.91 18.2303 162.368 17.8111C162.827 17.3931 163.055 16.9008 163.055 16.3354C163.055 15.87 162.904 15.4559 162.601 15.0918C162.299 14.7354 161.615 14.2854 160.551 13.7431C159.409 13.1547 158.633 12.5726 158.222 11.9995C157.81 11.4265 157.605 10.7713 157.605 10.0354C157.605 9.07389 157.933 8.27645 158.589 7.64055C159.245 7.00466 160.073 6.68799 161.074 6.68799C162.076 6.68799 163.005 7.07773 163.978 7.85594C164.322 8.1303 164.346 8.64824 164.041 8.96363L164.044 8.96235Z" fill="#231F20" stroke="#231F20" stroke-width="0.128205" stroke-miterlimit="10"/>
<path d="M164.784 3.52207V3.80207H163.936V6.12207H163.636V3.80207H162.788V3.52207H164.784ZM167.68 3.52207V6.12207H167.38V4.10207L166.548 5.80207H166.34L165.508 4.10207V6.12207H165.208V3.52207H165.528L166.444 5.34607L167.36 3.52207H167.68Z" fill="black"/>
</svg>
