<svg width="103" height="16" viewBox="0 0 103 16" fill="none" xmlns="http://www.w3.org/2000/svg">
<rect x="0.667969" y="0.489258" width="101.527" height="15.1767" rx="7.58835" fill="#9D0AFF"/>
<path d="M40.1361 9.58252V6.65185H40.3915L41.7313 8.93777H41.5973L42.9245 6.65185H43.1798V9.58252H42.8826V7.11657H42.9538L41.7313 9.20991H41.5847L40.3538 7.11657H40.4334V9.58252H40.1361ZM44.0719 9.58252V7.38451H44.3692V9.58252H44.0719ZM44.2227 6.89886C44.1613 6.89886 44.1096 6.87793 44.0677 6.83606C44.0259 6.79419 44.0049 6.74395 44.0049 6.68534C44.0049 6.62673 44.0259 6.57788 44.0677 6.53881C44.1096 6.49694 44.1613 6.47601 44.2227 6.47601C44.2841 6.47601 44.3357 6.49554 44.3776 6.53462C44.4194 6.57369 44.4404 6.62254 44.4404 6.68115C44.4404 6.74256 44.4194 6.79419 44.3776 6.83606C44.3385 6.87793 44.2869 6.89886 44.2227 6.89886ZM46.5737 9.58252V9.09687L46.5611 9.01732V8.2051C46.5611 8.0181 46.5081 7.87436 46.4021 7.77388C46.2988 7.67339 46.1439 7.62315 45.9373 7.62315C45.795 7.62315 45.6596 7.64688 45.5312 7.69433C45.4028 7.74178 45.294 7.80458 45.2047 7.88273L45.0707 7.66083C45.1823 7.56594 45.3163 7.49337 45.4726 7.44313C45.6289 7.3901 45.7936 7.36358 45.9666 7.36358C46.2513 7.36358 46.4704 7.43475 46.6239 7.5771C46.7802 7.71666 46.8584 7.93018 46.8584 8.21766V9.58252H46.5737ZM45.8159 9.60345C45.6512 9.60345 45.5075 9.57694 45.3847 9.52391C45.2647 9.46808 45.1726 9.39272 45.1084 9.29783C45.0442 9.20014 45.0121 9.08849 45.0121 8.96289C45.0121 8.84846 45.0386 8.74518 45.0916 8.65308C45.1474 8.55818 45.2368 8.48282 45.3596 8.427C45.4852 8.36838 45.6526 8.33908 45.862 8.33908H46.6198V8.56097H45.8703C45.6582 8.56097 45.5103 8.59865 45.4266 8.67401C45.3456 8.74937 45.3051 8.84287 45.3051 8.95452C45.3051 9.08012 45.354 9.1806 45.4517 9.25596C45.5494 9.33132 45.6861 9.369 45.862 9.369C46.0294 9.369 46.1732 9.33132 46.2932 9.25596C46.416 9.17781 46.5053 9.06616 46.5611 8.92102L46.6281 9.12617C46.5723 9.27131 46.4746 9.38714 46.3351 9.47367C46.1983 9.56019 46.0252 9.60345 45.8159 9.60345ZM50.4122 7.36358C50.5909 7.36358 50.7458 7.39847 50.877 7.46825C51.0109 7.53523 51.1142 7.63851 51.1868 7.77806C51.2621 7.91762 51.2998 8.09346 51.2998 8.30558V9.58252H51.0026V8.33489C51.0026 8.10323 50.9467 7.92878 50.8351 7.81156C50.7262 7.69154 50.5713 7.63153 50.3704 7.63153C50.2196 7.63153 50.0885 7.66363 49.9768 7.72782C49.868 7.78923 49.7828 7.87994 49.7214 7.99996C49.6628 8.11718 49.6335 8.25953 49.6335 8.427V9.58252H49.3363V8.33489C49.3363 8.10323 49.2804 7.92878 49.1688 7.81156C49.0571 7.69154 48.9008 7.63153 48.6999 7.63153C48.552 7.63153 48.4222 7.66363 48.3105 7.72782C48.1989 7.78923 48.1123 7.87994 48.0509 7.99996C47.9923 8.11718 47.963 8.25953 47.963 8.427V9.58252H47.6658V7.38451H47.9505V7.97902L47.9044 7.87436C47.9714 7.71526 48.0789 7.59106 48.2268 7.50174C48.3775 7.40963 48.5547 7.36358 48.7585 7.36358C48.9734 7.36358 49.1562 7.41801 49.3069 7.52686C49.4577 7.63292 49.5554 7.79341 49.6 8.00833L49.4828 7.96228C49.547 7.78364 49.66 7.6399 49.8219 7.53105C49.9866 7.4194 50.1834 7.36358 50.4122 7.36358ZM52.1059 9.58252V7.38451H52.4032V9.58252H52.1059ZM52.2567 6.89886C52.1953 6.89886 52.1436 6.87793 52.1018 6.83606C52.0599 6.79419 52.039 6.74395 52.039 6.68534C52.039 6.62673 52.0599 6.57788 52.1018 6.53881C52.1436 6.49694 52.1953 6.47601 52.2567 6.47601C52.3181 6.47601 52.3697 6.49554 52.4116 6.53462C52.4534 6.57369 52.4744 6.62254 52.4744 6.68115C52.4744 6.74256 52.4534 6.79419 52.4116 6.83606C52.3725 6.87793 52.3209 6.89886 52.2567 6.89886ZM54.9582 9.58252V6.91979H53.9283V6.65185H56.2979V6.91979H55.268V9.58252H54.9582ZM57.3971 9.60345C57.185 9.60345 56.9938 9.556 56.8235 9.46111C56.656 9.36342 56.5235 9.23084 56.4258 9.06337C56.3281 8.89311 56.2792 8.69913 56.2792 8.48142C56.2792 8.26093 56.3281 8.06694 56.4258 7.89948C56.5235 7.73201 56.656 7.60083 56.8235 7.50593C56.991 7.41103 57.1822 7.36358 57.3971 7.36358C57.6148 7.36358 57.8074 7.41103 57.9748 7.50593C58.1451 7.60083 58.2777 7.73201 58.3726 7.89948C58.4703 8.06694 58.5191 8.26093 58.5191 8.48142C58.5191 8.69913 58.4703 8.89311 58.3726 9.06337C58.2777 9.23084 58.1451 9.36342 57.9748 9.46111C57.8046 9.556 57.612 9.60345 57.3971 9.60345ZM57.3971 9.33969C57.5562 9.33969 57.6971 9.3048 57.8199 9.23503C57.9427 9.16246 58.039 9.06198 58.1088 8.93358C58.1814 8.8024 58.2177 8.65168 58.2177 8.48142C58.2177 8.30837 58.1814 8.15765 58.1088 8.02926C58.039 7.90087 57.9427 7.80179 57.8199 7.73201C57.6971 7.65944 57.5576 7.62315 57.4013 7.62315C57.245 7.62315 57.1054 7.65944 56.9826 7.73201C56.8598 7.80179 56.7621 7.90087 56.6895 8.02926C56.617 8.15765 56.5807 8.30837 56.5807 8.48142C56.5807 8.65168 56.617 8.8024 56.6895 8.93358C56.7621 9.06198 56.8598 9.16246 56.9826 9.23503C57.1054 9.3048 57.2436 9.33969 57.3971 9.33969ZM60.0345 9.60345C59.8475 9.60345 59.6842 9.56856 59.5447 9.49879C59.4051 9.42901 59.2962 9.32434 59.2181 9.18479C59.1427 9.04523 59.105 8.87078 59.105 8.66145V7.38451H59.4023V8.62796C59.4023 8.86241 59.4595 9.03965 59.574 9.15967C59.6912 9.27689 59.8545 9.33551 60.0638 9.33551C60.2173 9.33551 60.3499 9.3048 60.4615 9.2434C60.576 9.1792 60.6625 9.0871 60.7211 8.96708C60.7825 8.84706 60.8132 8.70332 60.8132 8.53585V7.38451H61.1105V9.58252H60.8258V8.97964L60.8718 9.08849C60.802 9.25038 60.6932 9.37737 60.5453 9.46948C60.4001 9.5588 60.2299 9.60345 60.0345 9.60345ZM61.9389 9.58252V7.38451H62.2236V7.98321L62.1943 7.87854C62.2557 7.71108 62.359 7.58408 62.5041 7.49755C62.6492 7.40824 62.8293 7.36358 63.0442 7.36358V7.65246C63.033 7.65246 63.0219 7.65246 63.0107 7.65246C62.9995 7.64967 62.9884 7.64827 62.9772 7.64827C62.7455 7.64827 62.5641 7.71945 62.4329 7.8618C62.3017 8.00135 62.2362 8.20092 62.2362 8.46049V9.58252H61.9389Z" fill="white"/>
</svg>
