<svg width="172" height="65" viewBox="0 0 172 65" fill="none" xmlns="http://www.w3.org/2000/svg">
<path d="M33.8106 14.3711C33.8431 14.3744 33.8758 14.3754 33.9083 14.3721C33.9811 14.3646 34.0553 14.3604 34.13 14.3604H40.2491C45.4411 14.3606 49.6514 18.5707 49.6514 23.7627V25.7002C49.6548 25.7503 49.6592 25.8006 49.6592 25.8516V39.334C49.6592 39.3582 49.6561 39.3822 49.6553 39.4062L49.6534 39.5508L49.6524 39.5596C49.4632 45.3864 44.5886 49.9574 38.7608 49.7686C34.843 49.6413 31.6261 47.1916 29.9083 43.9443C27.9676 46.0052 25.2163 47.2939 22.1622 47.2939C16.2849 47.2939 11.5206 42.5296 11.5206 36.6523C11.5206 30.7751 16.285 26.0107 22.1622 26.0107C24.664 26.0108 26.9625 26.8762 28.7794 28.3213C29.1396 27.5844 29.895 27.0762 30.7706 27.0762C31.9948 27.0764 32.9874 28.0687 32.9874 29.293V38.1885C32.9925 38.2631 32.9938 38.3387 32.9913 38.415C32.8752 41.9941 35.7146 45.2332 38.9044 45.3369C42.2837 45.4464 45.111 42.7965 45.2208 39.416V39.0107L45.2257 38.7842V27.8555C45.2223 27.8057 45.2178 27.7557 45.2178 27.7051V23.7627C45.2178 21.0195 42.9922 18.7942 40.2491 18.7939H34.13C34.0553 18.7939 33.9811 18.789 33.9083 18.7812C33.8757 18.7778 33.8432 18.7798 33.8106 18.7832L33.5841 18.7939H11.9092C9.16602 18.7941 6.94058 21.0194 6.9405 23.7627V51.9229C6.94052 53.2883 7.05359 54.7437 7.97761 55.749C8.8919 56.7437 10.2224 57.3524 11.7618 57.3525H18.0255L18.0635 57.3545H22.5635L22.7901 57.3652C23.9078 57.479 24.7803 58.4236 24.7803 59.5713C24.7803 60.719 23.9078 61.6635 22.7901 61.7773L22.5635 61.7881H17.5362C17.5236 61.7881 17.5106 61.7863 17.4981 61.7861H11.7618C7.52291 61.7859 3.92805 59.1585 2.68952 55.2529L2.57624 54.8711L2.52839 54.6494C2.49884 54.4714 2.49362 54.294 2.5069 54.1201V23.7627C2.50698 18.9685 6.09682 15.0141 10.7344 14.4355C10.9155 14.3877 11.1057 14.3604 11.3018 14.3604H33.5841L33.8106 14.3711ZM22.1622 29.9834C18.4792 29.9834 15.4933 32.9693 15.4932 36.6523C15.4932 40.3354 18.4791 43.3213 22.1622 43.3213C25.1834 43.3212 27.7343 41.3117 28.5538 38.5566V34.748C27.7342 31.9931 25.1833 29.9835 22.1622 29.9834Z" fill="url(#paint0_linear_2694_124641)"/>
<path d="M45.3895 13.3404C48.6845 13.3404 52.1625 16.1609 52.1633 20.1149C52.1633 20.1157 52.164 20.1164 52.1647 20.1164C52.1655 20.1164 52.1662 20.1157 52.1662 20.1149C52.167 16.1609 55.645 13.3404 58.94 13.3404H58.9414C55.6464 13.3404 52.1684 10.5199 52.1676 6.56589C52.1676 6.5651 52.1669 6.56445 52.1662 6.56445C52.1654 6.56445 52.1647 6.5651 52.1647 6.56589C52.1639 10.5199 48.6859 13.3404 45.3909 13.3404H45.3895Z" fill="url(#paint1_linear_2694_124641)"/>
<path d="M54.8806 6.56557C56.8576 6.56557 58.9444 8.25788 58.9449 10.6303C58.9449 10.6308 58.9452 10.6311 58.9457 10.6311C58.9462 10.6311 58.9466 10.6308 58.9466 10.6303C58.9471 8.25788 61.0339 6.56557 63.0109 6.56557H63.0117C61.0347 6.56557 58.9479 4.87327 58.9474 2.50086C58.9474 2.50039 58.947 2.5 58.9466 2.5C58.9461 2.5 58.9457 2.50039 58.9457 2.50086C58.9452 4.87327 56.8584 6.56557 54.8814 6.56557H54.8806Z" fill="url(#paint2_linear_2694_124641)"/>
<path d="M76.5066 20.5C77.9794 20.5 79.359 20.879 80.6453 21.6309C81.6272 22.2088 82.6591 23.1657 83.7342 24.4893C84.2997 25.1853 84.1689 26.2363 83.4666 26.7832L83.3738 26.8574C82.7213 27.367 81.7947 27.2742 81.2664 26.6279C80.471 25.6585 79.769 24.9865 79.16 24.6074C78.3273 24.0917 77.426 23.8369 76.4441 23.8369C75.1827 23.8369 74.1511 24.2352 73.3494 25.0244C72.5478 25.8136 72.1502 26.7954 72.1502 27.9512C72.1502 28.6534 72.2934 29.3374 72.5731 29.9961C72.8527 30.6547 73.3741 31.3757 74.1258 32.1523C74.5359 32.5625 75.8852 33.6434 78.1658 35.3896C80.8754 37.4591 82.7333 39.2993 83.74 40.915C84.7468 42.5308 85.2508 44.1531 85.2508 45.7812C85.2507 48.1302 84.3862 50.1686 82.6649 51.9023C80.9435 53.6361 78.8429 54.5 76.3758 54.5C74.4743 54.5 72.7532 53.9778 71.2059 52.9277C69.9754 52.095 68.8191 50.8081 67.744 49.0742C67.2718 48.3161 67.508 47.2971 68.2537 46.8311L68.2654 46.8496C68.9863 46.4022 69.9126 46.645 70.3787 47.3721C72.0627 50.0378 73.9707 51.368 76.0897 51.3682C77.1399 51.3682 78.1289 51.1128 79.0486 50.6094C79.9682 50.106 80.6704 49.4225 81.1551 48.5713C81.6398 47.7199 81.8758 46.8184 81.8758 45.8613C81.8757 44.7739 81.5217 43.711 80.8133 42.667C79.8376 41.2315 78.0476 39.4976 75.45 37.4717C72.84 35.4333 71.218 33.9542 70.5779 33.0469C69.4718 31.5181 68.9188 29.8711 68.9188 28.0938C68.9188 26.6832 69.2419 25.4032 69.8943 24.2412C70.5468 23.0792 71.4666 22.1659 72.6473 21.501C73.828 20.836 75.1208 20.5 76.5066 20.5ZM102.951 26.584C105.169 26.584 107.176 27.0498 108.978 27.9756C110.774 28.9016 112.354 30.2942 113.715 32.1523V28.958C113.715 28.0258 114.485 27.2734 115.43 27.2734C116.374 27.2735 117.144 28.0258 117.144 28.958L117.138 28.9453V52.8154C117.138 53.7475 116.368 54.4998 115.424 54.5C114.479 54.5 113.708 53.7476 113.708 52.8154V49.2549C112.247 50.9949 110.613 52.3064 108.799 53.1826C106.984 54.0589 105.001 54.5 102.845 54.5C99.0166 54.4999 95.748 53.1382 93.0447 50.4102C90.3353 47.6882 88.9803 44.3763 88.9803 40.4736C88.9803 36.8568 90.3974 33.3828 92.9578 30.7852C95.7171 27.9824 99.0483 26.584 102.951 26.584ZM152.452 26.3545C154.341 26.3545 156.038 26.839 157.492 27.7959C158.94 28.7529 160.034 30.1081 160.736 31.8232C161.434 33.5218 161.788 36.0861 161.793 39.4609V52.6973C161.793 53.6915 160.984 54.499 159.99 54.499H159.816L159.818 54.4941H159.816L159.82 54.4893L159.821 54.4873C158.827 54.4865 158.02 53.6794 158.02 52.6855V39.5166C158.02 36.627 157.815 34.6073 157.405 33.5322C157.001 32.4634 156.292 31.5929 155.31 30.9404C154.329 30.2882 153.129 29.959 151.763 29.959C150.091 29.959 148.55 30.4563 147.164 31.4443C145.784 32.4325 144.758 33.7627 144.118 35.4033C143.478 37.0502 143.149 39.8529 143.149 43.7305V52.5928C143.149 53.3818 142.683 54.1332 141.937 54.3818C140.651 54.8169 139.445 53.8662 139.445 52.6357V40.4434C139.445 37.1809 139.24 34.9434 138.836 33.7812C138.438 32.6316 137.729 31.6927 136.735 31.0029C135.741 30.3132 134.535 29.959 133.162 29.959C131.571 29.959 130.061 30.4441 128.676 31.4072C127.29 32.3705 126.245 33.6817 125.58 35.3037C124.909 36.9381 124.574 39.4735 124.574 42.8477V52.5859C124.574 53.375 124.108 54.1269 123.362 54.3818C123.246 54.421 123.13 54.4454 123.016 54.4629C123.009 54.464 123.002 54.4667 122.995 54.4678C122.988 54.4687 122.981 54.4679 122.974 54.4688C122.917 54.4763 122.86 54.482 122.804 54.4844C122.788 54.485 122.772 54.4851 122.756 54.4854C122.699 54.4863 122.644 54.4855 122.589 54.4814C122.574 54.4804 122.559 54.478 122.545 54.4766C122.489 54.4712 122.435 54.4652 122.381 54.4551C122.37 54.4531 122.36 54.4494 122.349 54.4473C122.051 54.3855 121.779 54.2532 121.552 54.0664C121.532 54.0501 121.511 54.0347 121.492 54.0176C121.464 53.9923 121.437 53.9655 121.41 53.9385C121.388 53.9164 121.366 53.8942 121.346 53.8711C121.32 53.8427 121.296 53.8131 121.272 53.7832C121.254 53.7604 121.237 53.7375 121.22 53.7139C121.199 53.6848 121.178 53.6553 121.159 53.625C121.141 53.5968 121.124 53.5683 121.107 53.5391C121.09 53.5092 121.075 53.479 121.059 53.4482C121.043 53.4149 121.028 53.3811 121.013 53.3467C121.002 53.3188 120.99 53.2912 120.979 53.2627C120.962 53.2155 120.949 53.167 120.935 53.1182C120.93 53.0987 120.924 53.0793 120.92 53.0596C120.908 53.0083 120.899 52.9561 120.891 52.9033C120.889 52.8873 120.885 52.8716 120.883 52.8555C120.874 52.7831 120.87 52.7094 120.87 52.6348V28.6357C120.87 27.7657 121.578 27.0567 122.448 27.0566H122.653C122.659 27.0566 122.665 27.0557 122.672 27.0557H122.771C122.777 27.0557 122.784 27.0566 122.79 27.0566H122.995C123.865 27.0566 124.574 27.7657 124.574 28.6357V31.2891C124.574 31.3511 124.63 31.376 124.661 31.376C125.842 29.8351 127.003 28.704 128.178 27.9707C129.961 26.8956 131.857 26.3545 133.821 26.3545C135.145 26.3545 136.425 26.6157 137.618 27.1377C138.811 27.6597 139.799 28.3618 140.557 29.2256C141.253 30.021 141.875 31.1462 142.397 32.5693L142.613 32.625L142.546 32.5869C142.547 32.5855 142.547 32.5834 142.548 32.582L142.546 32.5811C143.677 30.6111 145.094 29.0825 146.754 28.0322C148.512 26.9138 150.426 26.3545 152.452 26.3545ZM103.236 29.8711C101.297 29.8711 99.5134 30.338 97.8729 31.2764C96.2325 32.2085 94.934 33.5258 93.9647 35.2158C92.9952 36.9062 92.5106 38.6961 92.5106 40.5791C92.5106 42.4621 93.0007 44.2334 93.9764 45.9424C94.9521 47.6514 96.2641 48.975 97.9109 49.9258C99.5577 50.8765 101.323 51.3555 103.212 51.3555C105.101 51.3554 106.916 50.8831 108.625 49.9385C110.327 48.9939 111.639 47.7198 112.558 46.1104C113.478 44.5009 113.938 42.6862 113.938 40.6729C113.938 37.603 112.906 35.0362 110.849 32.9668C108.786 30.9036 106.251 29.8712 103.243 29.8711H103.236Z" fill="url(#paint3_linear_2694_124641)"/>
<defs>
<linearGradient id="paint0_linear_2694_124641" x1="-3.5" y1="10.5" x2="45.1489" y2="53.8329" gradientUnits="userSpaceOnUse">
<stop stop-color="#64C2DB"/>
<stop offset="0.510417" stop-color="#7476ED"/>
<stop offset="1" stop-color="#E56F8C"/>
</linearGradient>
<linearGradient id="paint1_linear_2694_124641" x1="46.5637" y1="13.3649" x2="55.639" y2="10.3071" gradientUnits="userSpaceOnUse">
<stop stop-color="#64C2DB"/>
<stop offset="0.510417" stop-color="#7476ED"/>
<stop offset="1" stop-color="#E56F8C"/>
</linearGradient>
<linearGradient id="paint2_linear_2694_124641" x1="55.5851" y1="6.58025" x2="61.0303" y2="4.74561" gradientUnits="userSpaceOnUse">
<stop stop-color="#64C2DB"/>
<stop offset="0.510417" stop-color="#7476ED"/>
<stop offset="1" stop-color="#E56F8C"/>
</linearGradient>
<linearGradient id="paint3_linear_2694_124641" x1="63" y1="21.5" x2="166" y2="53.5" gradientUnits="userSpaceOnUse">
<stop stop-color="#64C2DB"/>
<stop offset="0.527459" stop-color="#7476ED"/>
<stop offset="1" stop-color="#E56F8C"/>
</linearGradient>
</defs>
</svg>
